<mxfile host="app.diagrams.net" modified="2023-03-23T17:46:02.357Z" agent="Mozilla/5.0 (Windows NT 10.0; Win64; x64) AppleWebKit/537.36 (KHTML, like Gecko) Chrome/111.0.0.0 Safari/537.36" etag="yeNV0SQUpkSCvArWU3LL" version="21.1.0" type="device">
  <diagram name="Page-1" id="GbBTtau7TMLAj6zOEFLi">
    <mxGraphModel dx="1647" dy="910" grid="1" gridSize="10" guides="1" tooltips="1" connect="1" arrows="1" fold="1" page="1" pageScale="1" pageWidth="827" pageHeight="1169" math="0" shadow="0">
      <root>
        <mxCell id="0" />
        <mxCell id="1" parent="0" />
        <mxCell id="dYQdGJojqVXah9hVao-H-2" value="" style="shape=image;verticalLabelPosition=bottom;labelBackgroundColor=default;verticalAlign=top;aspect=fixed;imageAspect=0;image=data:image/png,iVBORw0KGgoAAAANSUhEUgAAAbgAAAG3CAIAAABJ/tcxAAAAAXNSR0IArs4c6QAAIABJREFUeJzsvXmwJMd5H/hlVXe/1++YeXMCGAIYDAgQAAlAvAlKpEnCsizRtLSWJVOHLcmWHFqv7fUfjti1wxu7sbERG7GxEbvhXYWt2EOyDluHJXFF0qR4CDRAgZdIioBAgDgGx2CAwdzvfq+Pym//qKqszOrqyu/L6qrJ190Z4LB7pqozv6rMX37f7ztSICLM27zN27zN2/gW3OgBzNu8zdu8+d7mQDlv8zZv82Zpc6Cct3mbt3mztDlQztu8zdu8WdocKOdt3uZt3ixtDpTzNm/zNm+WNgfKeZu3eZs3S5sD5bzN27zNm6XNgXLe5m3e5s3SWuX/HEWRECII7HgaRZH6HIah9XoppUoKCoJACFF+PSJKKePPDkNqoAtPpG74wdYtdQNdeCJ1A13MpSZKPdosQEn5XT8Xs3593CbbhbdS19qFh0NqoIvc9ZTFPx1Sq993kLqORQc3CCXBCpTcp+mJqNwXlru+7jk0mytnaqRmTacDLXXcxexIXdIsQGkdh/40PRGV24XDkPTFMwVSE7uYAqkduphLPUdJqAiUOpHkiahcvsNNS2J14b/UPnBVutRAm05TxkHDzEgNXkJHeXMHSvU0/dkQuE+/yhyaS10+pIalrhUv5lKXD2kKeMkoisq3BBeg9FPUuR9jzktOqou51LMpdUljA6WD1ebh03TjJdWQDugccvNZ4Ywx+rMpNcwqL1kXUHpILuhdcCkVB15yOqSuw6j3UOoGqIzpwAsPgxkblrq88YDSw6c5ZX4MhyE5KAu+SQ1OkGS93kO8AC+BeC61VWoqUPq5IejXU96WgxXms9Q1deGt1HVb3NzpNB1SV+GUKLd4KDXwoYMElP7zknW8sOngJedSu0k9CwzdbLKxDlIDBShzv+uDqA5duHlvpklq7hwCb0ykuR9jLvUEu3BQBYAClAedXAC+7glTIbWbHcDqwk+pfWPo9CHBzESVO0jt4XRSzV49iDWO5hk66/UOeDEdUjvPobnU5UNqWGof8KKKquHPg3VGSSBylP6I2jCj78OQGujCwRiZSz2bUh/QReRmbuvNDpSeiOrQhRsvqYZ0QFdOFV5SpG2yQ/J25cyy1DDnJTnNDpSeiKp3MTuhXlWkrsm8nb6V48mQGpbaEw7aw0VU2CxA6cnTbKAm0Dyq3BNGfwr8GODl9jOX2hkloWKZNZgKRt/bbVB9nik2Vn2eKakbwws3XvKASq1f72Bu661qPcqDPoemg5ecSz2XuuT6nNSzwEvqbCxR6vLmDpQePk037416mj68YIcu5t4bB4ZuLvUNHJKfUpf/rCNQekgucI0FmApKxYGXnA6pfWPoKg7JkwfbAAft4XTShzSuuQDllPkx/NkG62ZjwUu8mAKpwSm+Wn32EC+4qoY/i6gOlAS3epSNrRyiYejAX3j4ghtgbbjc9nRIPecluVIf0EXkILV+S3njAWXDc6gmSmW+cmaEq5pNNnY2pYbKbGz5xQyg9PBpTgelUrf3Bubx1XOpb+iQGu6iDnaFCpQekgtuuiGrC/+l9oGhc9h+psCPAVPhFptLTYQOElBOAaPv7TaoPs+s1LWuHK+kbgwv3HjJAyo1l3l3UDWAWI/yoM+hOS85l/oGDqmBLkalngVeEtMGtUmtmgUoPXyabt6bWp9mw1J7Moc8Xzkwj6++oUOaAqn1ZgHKKSAXpoBScTAWpkPqKka9hxy0Jw92OlygDbCxeiPZ583MIev1Dngxj6+eS10yJO7KccAL/Xrf8MJB1fBkOjUgda6R6lHWunKIhqGDFeahsdCA7enbkBroYs5LOkh9QKeTg9QOCtZoswBlA3OoJkplvnJmSupZZmNnU2qon5fUmwUofXiaVbw34A2lUrf3BmY10ngutSdDal7qxlASKtajdBB1HlU+jyqndDGXmtiFP2ysb4togigJVYDSbc9Rn+tm9P3ZBudS171y5lKXD4mlavipS3Jj6bkKFiKWX+MIlB4+TQ+H1EAXbhr3XOq51BMZUgNdjEpdE3SUa6kuQOktL6mGdEDnkINTUglOnEMeSu22cmZNaphHldfv+C1pbKBsmFygo5767MkL1ruYzZNmG4gq91DqA8rQzaUubzygrCiqwwbi29OcTanBCZKs13u4csBLIJ5L3YCCVd4YQFll86+VXOAOqYGdVn2es7GT6iJ3/QFlVxrmJetYdNDsIiJKzVU1uEOiAmXFp1kTSk4BLzmX2k3qWWDoZpON9VNqElA28DTdKFj1NH14wQ5dVPHegDcm0nQw+nOp51KXNDtQ+k8uePKCG64J5CEbOwUnzcI8qnxyXUyH1HGzl1mr2ynpgBf+Rxpbr68yh+ZSlw+pYalrxQtPaC7wEiUdaCjug1XNXriX9bsNM/o+DKmBLhwmxFzqudSTGlIDXThI3QB06I3EUXrFS6ohHdA5VIWXFGmb7JC8XTmzLDV4w9BNBy/JNVtzzQ6UDk/TE3Kh4Tk0jyqfbBfqs4dSN4AXnnDQHk6nZrw3uWYvs+YbuUDsomFKpW42Fnz1Y1ivr/hgZ2fTnUvtieO3sNkL9058HA2QC1PA6M+l9krqui1u/Xoup0S5xUOpwb+o8pJWqR4leMnyTsfKmUs9s1LPAi+ps7H+SF3SKgFlM94b9TR9eMEOXVTx3sCc0b+hQ5pLPTtSlzd3oPSQXPCQUuEaCzCPKveVjfXhwTYgtYfTqRk2tvwyR6B04CW5eOF/pLH1+ipzaDalhvpXjpvUvuEFV9XwZzp5GFWuSz2uuQCl+l0iueDAX3j4gj1n9A+u1HNekiv1AV1EDlI3DB0ljQ2U3G3NjZek/75bF/7PIR9Ym9lk9OdSzw4vSURJ4AKl/rv+kAu+zSHu5g/mHDqgUldcOZ4MaS51A114wrznuii/mAGU86jy+UmzlC48kRq83HTnUh9Qxy8VKOtm9L3dBtXnmZW6DtvTT6kbwws3XvKASs1l3rmqRgNSAxEoPWR5p2DlzKWeZal9Y+jmbGx5swNlFYaO7r1RT9OHF+zQhYNTcgrmUJWVA14y+rPpxzi4UrMWnUMXqlmAcgrIhQYoFbcXpj4fXKmrGPUectCePNgGOGgPp5OHUuuNylE6bCC+Pc2aIMzzOTQ7UsM8qtwbXbJhBaum6aQ3Uj1KytAdrDAPX3ADtqdvQ2qgizkv6SD1AZ1ODlJzFazGeEm9UYFysuOYr5xZkxpnmI2dHalhKtjYwmavR1kTSuq3WEfp4dPkbv4wq5HGc6k9GVLDXfjDKVVHSaBUOC+/wE1LUp89eZrzqHJPHuxcai4bC94A8RRIXdIq1aN0sEf83AbV57r9GN5KXevKmUtdPiSWquHnIuLG0nMVrBuoS8bNHSgrouRMMXTq+rnUN2pIDXQxl5rIxvqpYJVf416P0oGXjD8Tn6aHc8jBKakEP7hSu62cWZMapsKP4afUXJrLTepyuqBSPUqYpahyB+/NFEjdAJUxHXjhZ2zsNEkN9U+nkmbvePR3uXjh4RyazZNmm2Rj4cAy+nOpm1E1uFI3sIhKGk+j9JNc8I3R91bqui3uOQfNlboORg+8lJqrajQvdfnFDKBseA7N5sqZGqlngaHDtMFc6hs6pAa6YNSj5I5Df5o+iOrQRRXvDXhjIjXM6HsypOnwY8yl9kRqdj1KB3LBE1HnJ83OT5qldOGJ1DAVi2g6pAYKUDrghf+Rxtbrq8yhudTlQ2pY6lrxwkFqiqrhp1ZV0QV6QKWOmwUoHfgLD0Wd85JzqSfVxVxqIi85HdChmgUo1e/SeUk1jgM6h6rwksQ55KHUbitnlqWGWWLoGpDageZqDCWByFHSUU999kRUvYvZiSrnSt2AUT8deOEhB+3hdGqAg24YJYFYj9IHlrd5SsU3qcFpDlmvr/hgZ4fRn0s9BVHlbigJlDJrB5RcqJvR91bqum1P34bUQBcVOaU6GD1odhERpeaqGn5KXdjshXut45gCXrLhlTOXelJDaqCLORs7O1KXtKr1KPWn6YmoTXpvwBsTaToY/bnUc6lvYBclrRJQTgGlwjUWwEtKZR5V7smDnQ4/xmyyseXNHSj9jzS2Xl9lDs2lLh9Sw1L7hhd0aoI1JA9R0oGQ8XA6RVE0+XqUfqrNDfsxZoqhU9fPpaYMyWE6HVCpKy4iH6QGc9Md19hAOR0rx42XVNfPCGujs7FzqW/gkJrpYjZ5Sb2LksYGSg/JBb2L2Ywqb2DleDKkudQeLqLpkLq88YByBqPKpcR+b7i13n/t7Pb65d6wj92V9olT3VN3riwuhWEoRJAXau7HOLiM/lzqBqLK65VaAkQgNkCejfCShB6IFQGnRHBnAEsCQlCnOrCkpgKltxuC+jzxLoYDeeXC3jPfvPLE45dff2knGqJAARD3IRa6wel7Dz34/SfufODwkZMLrXaghnSgpXYe0hToF9wzV7l44afUXOadq2o0J/UA8A0pvy3hcTl8UcIQ4tviP2VXiHvD4AdCuD+AkwJDHtALiuY5g6zNztbg249e+voXLlx4eRsRBQhAIUBA8tyTzsJQvOmulXd+5OQ7PnSyu9I66FLDTL5rmEt98KXGLYy+PJRfHIqXAFDoEJn+KQAAQoC7BHw4EB8MYUUQpQYKUOaepg8v2KELFi/Z24s++etnv/P4pb2tQXJHpksaQBm3pdX2/Q8d++jfP72wFNKH5PnKIXbh4btueDp5MiQ/pW4GOnAPB7/Rw8el2NK1mSKgBJQCYQXEQ2HwC51glcSWAAUoPeclJx5fjQj//n975i/+7KKMMBk6BiNP35BKAAQh3HLH0t/7V289dLRzEKV266J5DtqHB1uRg/bwwdbExjb2YPv/+758PAqGQYqGxUCJAFJEyd8EIryjFf73C3CUBJSWB+rhyuGywqwuoggf++Sr33z0DRnFUgjAIH3UZZ1Iia+/uPNHv/L89vrwwEkdtyb9GG5S+4YXdCpTXe/JImpAap3wrVHqCAafGkSPRWJos5YAI6GkFmEUiLMo//UArpG83qTMHn9ecN1dvPjd9Uc+cU67X1BQUl3y8ne3vvafLvT2orKr/ZO6mSH5lo9RUWpiF1Mgtc7G+CZ19PRw+IlBgCOhJ7nrAaRIpQYIlL/huxF+egh71gESgJK+bR50lNzbGXzjkTe21gfp/RSdXIJIdySEQQ+/8+iVV5/dGsdneCj1NDH69C6qS+3J9lMR9ShSqy68k3oHoy9FwYbtegAppFqRAjMLHXoAj0bwrASbWmkX44By2/oLJnZx7vnNF59el/EjTXTJ0l6EzP4dIb54/XLviceuDHoFSqX/K+eAvuu51A5dhGF40KWWZxGfRiiz3wAAIiEBMF6iAQZBbl1fRnwsgp7lRyySeGJxR1HEesFcYwEABoPh+Re3rr6xB0CxuBFSTT7+lqEq4lOPX97dHORvcIoqb/jBWq+v6MeYEanB16jyaZIaJMDLiBfL0rQxQ0kAEKGuS+oXPR7BpkWlJHGUJe2ge28gpVT2tofnz24jCCovmX3M6577u9Gz37xeMiTiNFWf62b0m+Ggp0Bqiq2aY+j8UTVY13Mt9Bsg9V4gz5abzCg1lAwKUTJuuwDfLANcqAiUnmvmdK4KAPb3oouv7pK9N4qXLLbQn//OuvOQoHFGf0Y46OpS+8XQuUo9cdrqxki9i/LcWKsbAaVAzFBSjEXJuH3HYsC7A6WHK8fhBSugHA7k1kbeXi68aQQlC9qFl3ZUFx6uHAdG37d33YwfYy41XdWgD2kiUuMAcGPsHVLIHEqW9oHy5WH5GBwL9zZpLEAjtcpRir2dyOa9wczoLtU9t6/3oSmpq1AZvhmGzXThidQeLqIGOOiJST0E3Ck0vJXFLUTivbENCSRct3CULkA5BbwkjMwhlDDoyfHYh9qfdm9Pvyfd5hDreg9XDnClQOjvDwe70eXv7V76y53Nc4P+pgQQi4eDw6cXb3pw+fg93fZSEC5kvzMNUnuPknRqwrmLqlJLgF4e3TBFyfh3Awyt8ZUIEgVavd4u9SgP+k7LHxKCFlVO5DE9l9oHXnKwL68+v3PuqxuvfnVz72oksrIjYgPg0pO7z3/q2tLx9u0fOHTr968euXMxXAicOWhwkprox/DwXXOl5hpkPkoNiJnNJ6xR6ACAIKUgxUvzgHI6UJI5hwpR0ho8dANYm/Lrc1LfcIZu7/rge5+5+vKj69sX+4AgxqSK7l4ZPvfJaxe+uX36I4ff/MNrrWVB70JnYz2RuoEuZlRqQBSIyfos9XEn16e6ZDwkG1oygNLDp5nb/LncNkmXTPaoOEaS5xP3ZA4BW+rah7S/PvzK/3H+4lM7w54UAKLUKYkSNs/3nvnDy9df2nnXPz7V7gbN+DF8mOEV3/XMSI0yi2sWwoaSACgBUaCIqcwkCr2sUYHSQ0qFayw4dEH33qhBZT5xcny1fr0PD7ZuRn9vffj5/+7sxrmUFrKGbgAi4GBPnn98a7Bz/gP/6nadshzX5rzkjEid8pLA0SWVkS4CFPlcnaJGCg+aMu+NIAXEYvpf+o2JklMQX+0wJGsX++vDr/3q+Y1X9xMmiYaS6sFe/su9p3/3atS3+CjnUeV16J5+Sq3pkmBFSUgs7tQtjiKAYs4n1278htBAF7nrybykrkuWd2FenxRnszT/pK59SFFfvvDItQvf2U46saMkoPkicCjOf3nz8lM741Iyqkt9IP0Y/Kjyil14IDViviYQYUggpcjiKwNyILnlOg9RUkpZM7ft4OMGEyVvPCT5yeivv7Z/9kvXB7sREHRJNFFSXb97efja17b7O8WpFDPJ0LlIrbog7g1cmqt+ixswiSpHSHXJMqYbIDK9NwHY3eKqWTjKJueQHyfNGuYz2cetf+OhZANR5T5MawAYDqLz39xcf3UfAAh0O0BSeUR3owkAQImXn9jZvbTWWck/unlUuQ8cdMUuGA+WksetrgeJaSSQwEAwkxJJV9f3glmu2Ca8N6XVLoqvzwOrpeXmkH1A/q0ccAJiOcRzj2+gBCARSYi6H9NUFrYuDHbeGOSsbz+l9hkl6dSEcxe1s7EEXhIBZOK9AQAQKAJLRmNBs4+pGe9NHbani/dGq8LrhJI32NDDRopLuzH625f6117ap+iSaFSxS052yw1i81xPDbuioneA/RjVLPQaFlHDjl9KJJDadBESlCR5b3LNYnofUHuES9kAgERStQvVAwAwUXUWo8r1Li49vYOSiJLqWLdYkSy4Ze/6EBGEr2zsbHLQTXdBo7lRSAGgvDdsjAQAK1D68DS5vKQ+h4BvInHPyYnHdcNRErz3Y2yc79uKuOR93ONQEgAwShgqz6WezXfdRBeCR+CwfNyjzbF6UDIOL6PKq1AqnKjy9DLCMY1TdtIsOMXS97ZkycUAgIBC5UGhKKfb20uhED5K7TkvOTVsrB4+WTykat6bXHMHyuq8ZB1dVGHoHHJviN4b9dlDqRvjoDEqixJPdcmYxRBW3VOEEEkp0oE0cNKsJw+2oqpBkdrD6ZTbdG2Xo+m9CWzemyRJvKQ5AqWHmrkLL2munAPqvakitS9WWEJlJLokxceIkBwD4PauKQ92Cma4Qxe+SQ3mdkURHEdQknC9LN9zXIDSc17SjdsOhH2bGokq9wIlDzyjn3lvYovbng8AWf3qGWLoGuAlHWiuJh+sVWoEVLxknPddrkvGLLfVigcHoKwoqh9R5dwXbPq4wQtdEsyZ7eG0pqNk3AMloxEA9PMv/QlYabKLudRju8hQ0u4T16+3Nh5Q1k8uNBFVXhklCXFYwjuuykdGX48EAqDk6qSlsUCACMPJDwkOgh+DNSQuGwsHV+oR7401xEIrO2RpDKCcCKM/2S7q3waxyMdta2altQMode1dxCZPlscNQtgerBaFLgBA2KkSl6hyPx+sup7ISx50Nhb4Ukstj5vASyICREKKpNSssBbUoAKlh0+zAT9GES9pvR4ADrbUDbxrAIlKgaQFG6DiMQFEHEc00SF5O8MPPAddf96UBAl5lLRRmVmIBak4GwkoG3iazXtvaCipf+NFDh1cRr9+XVIqJV2QvDd6RqMvBPHce+PJg1W6ZAx51qhyaaAkqaAGUICyAXLB7YWpz/WoPA66pOHt8YK1aTzAjaJLclJFAUyUFIQTo6pIDQeXoZtJNhZBKkODUAQ64SXTi6goCZQyaxV5Sev1Xs4hbiQQO77SS6ld4qvVZ673hhJVnvf2MMshc/0Y/mhVDXhvpiaqPMZJkeRxWyxurdAvAyXBCpS+zaHc9TUwdDkfNylesm6UnA5e0rCgKU/J3H7GHdM4bkgO08mTGc5911PpvbFb3Kgie9SJDqXXu+qScSNxlJ48zdE51AgvSdElBfn62WX01fW0qPJYl1RUZr0WtyczHA4+B129C67UVpSMQyykFmLBRUmgAGVdFCw/qlyfQ7VFAul/wcrVmTBKIsKVV/fOfXdz49L+zmZ/d32wuxm1O+HKWueWu5bvfNfaidu7hTd6vnJSlLSYSOb5lzxd0kOpHbrwhIOu1AUIvAb73+0Pzw9xE+Q6yg0phBDLonVH0Hl7u3VPS7SrSU3w3uhnLgItEH202cuseeK9aYChy1JEQPm4S+6qBSURobc7fOrRq9/45IWrr++pCAYAEBjGH5557Oojv/bqmXce/sjP33byzJIumeeMPiQQabsljSoHIFVm9Vxqf3jJ5qSW0H9quPv7vcGzEQxSGjG9TIDofx32fq8X3h4s/lyn8852jHVsqWmQp1ncEKaLiNvshXvt46jZe9PMNhhpUtwo783u5uC5b6x/7f97/fIruwig+TEK3O4vfXvj8ou77/0vbn7wr53oHmrBAdAvKAeKVUqop+CFt7qkuv5A85K4j/1nBjt/3Bs8EQksuwcBB68OBv9zv/OBhaWfWGjf3rYOyZAa7LzkiPeGchhMcatUjxK85LYrqjxO3htLs0qNCBdf3vnGp9544pErSTkyEy8K+9hZHzz+u69tXe3/lZ+7tdURXqOkEEJYLWhlcYuYoZ+4LukhSk4NBy2llFu4+4X9nU/34JolIVUdzyAQBo8P9q5B8PeC1r2tEujLTycba63XEEq9N+6NkJA3vjnwkj7PIQBaZF96/oZ2femcIEzTN17c+cKvnXvikcsYYZFWBeO66O/L73zu0pd/+7zqwquVQ+/CTJawb1cIICX6iResLhrw3nBpLkddcgA7n93f/gQDJZNBRWL43Wjn1/blpbH1KXToCIKANp2SElM07w2W/msFoNTPUAzD0IcXVhkl7U4DbooIZeXsrA8e+93zLz25IfMoCakuWdbLsB99+zMXn/vKdaiTPqsZJUHz3hCLrU1JVDlrETlCWI0u0Ezq3l/0t/9oH7bAzpZkVfJEUnscRfRctPMru1AElewhAUoh01VE0SUxstUQcgTKunlJaDwLJQwI/IV2NOAEfdxPPHL5e1+7hrIQJa29SBAgh/itT13sbUc1Mfr69XWgpK5fUIqtxWUHVRdcqT1xKE/TSbNyR67/Xzti385BSxGpd20oegiDJ6L9z/Rzuh1X405RMtElQxtKogHcY5sLUDbA2nh2SGYcOSSNv5gQSq5f7D3+R69j3o8BNLyQ6pL1C/1XntiyDsmzB5tU4U2/UVEyq4BwIKfTBCx036Te/ZM+XrGyJYgC0/2w2Bzufbovr2QLjfugJEgZU59pFxYRACXYURIcgHLKvDfEacr1cQNQu/jqJ1/f2RiMutEJcQ8ZSgLC/lZ04dmdaDD2lXvK0Jnnd1uJJBViKQBE4JG3l96FzrwDmZfkMXQNx8b2Yf8rA5vihlKgaXEX3CGvycGfD9WQ+LxkRuAEpT73ZEiGw6es8YCybu8NmEBZNy9JG1JhJBA1eKi8i/5+9NSXr47qklY/homSAkCghI1Lvf3tYfEtHuKFgZIUqTOUBBACguDge2/8mOFVu5AXUV4rgxuM3duq/GCJa2Ufh08Poe/MS2beG+t0kkI/zNbylBhA2YD3JteF9fqK3hsySuZ83JRbAAhSv352Z397wNclETWUVDzm/nbU242Krmb7Mer33hgl+AlR5ai9C1oIl69R5bV6b+BGSB1dQRiWAaVOAloc0AjyshxeHjrwkuk3ko9bCkTIUNIakkkFyia9N80QSZQumCiJLJQEgGsX9iTyUNJQP80hyQhR5uerg9T1e29Me4fglNRuofnE/eMlgV+wh+3HuEFSYwZrI9cDSC2czgphCBDtyGiTN52Ujzv23tgDy0CmKDm5epQwo7wkv9KaniqOJKl3twY6EHNRMnd92BZBy/gbD21P3XwGoFS7wHKpKw0Job8Z9TeHw55EwNZi0DkcdlZaDcxwHxxEk3rXYlGIoNghEgczxr9LsRsQUPYF9pAohXEyLcHiBtDLoYsAhbUcetzsQFklmJHLbRPnUOO8JHBRkuITR8RokBxOTVj/iABijC4ZtzAUgQY7HqIkAGp53KSaQAgoakDJwY68+uTu1Sf2di70BztDOUAQ0OoEndXW6u0Lx76vu3ZfN1wo7qsiL1nTDOfSXBN816INIASYUDniWrEXi4xvCaWAiFTFRq92IYCSIAuYHUAWe3uoJrW9HqUzaUh/YeqzJ4t55MxFa+OhJJhSU9RVNLsonhDaX3uJkjqjTzlNDHSfFal+NW1IV57cff4/XN16ZTDckygjTN1zAgMB/avf3nvt85urb16862eOrN276NaF3pqMCIYbsYhG7zYLiScWd2kfmNLWAgACQfHegDpDEWhGfY4EKD/yO9fsFc6T360h1At8nEOFKGn1cWcfKSipSw22QzU16jO2VQ+qH0OilrVmC90AAAQpVK1PUrCBXerhvjz7B9ef/4/XYuq/0KGEQ+xvymt/sfv17+zc+eNHzvzkkdZScqhfwyhJp6Gcu6jTU5dsQJTEGB1YBXCljqPKbXPDJAFsxzTmG4mj9CTmtv6ociiqdmFFSbWYrRfnhyRsZ66I3aVfAAAgAElEQVRiHFlhWtxWP4ZnD9bYQZU3xnKLebSOvYQlYUj7V4fP/c6183+6CTJ5sOmAircfgeLcJzd616IzHz+yfKqN5NhY1cx3bV+ZXFXDx3cNRh63NZgRID7tSzmgCTWBzJKXhEggQMi8nAEfJYEClDPjvQH92GhuvGSKkpbFPMro56mdsi7s+WE+rhyNg051STZKWh+sdUjDXfnKZ9dfe2xTDmOIjOktEZQa9XKAb3x5O9qXd//isYXjqe/ioDLvTdBWKjGG/q6VNyaI875tQ8oWEc1nbXpvAqL3Jtds0UM11wSid9HAHNLuJ0AkEyWBuT0gYBFelA0IMAsP8mblmFLTjsrJgoeSZVAVJQHhyhO7r/zJxnAvhsjsgFPrjohDvPznOy/89lVIUc8T741vKJkGM9K9N9lJs0DiMUeSmgg0txSqC5cTIFSz9FS3u80HSgXiMODsfsqGMxrMaLmFG2mccxCRotAhs299iCrPdyECO28AWU69IKAk0NhYlPjs717tbUSgWXki0yXHoyQAAkaRfOOxrdf/dNtB6qmJKrdcz0RJyHRJhMwVw3hQYWAPmcgFujtY3Kqxc731VoXbFt6EAZu6pD0OK+/woaGkGhJBahzNUKSTAPQHqz43EF9NO6N5bCz9mOupXbz25a3NF3ugeW8EqHdd3otMbkE4+++v96/J0osBKh+LQkFJ3xZRrBum36jmcBbZk+iS3EVkMcj0ahe01K+y5g6UFb03nvCSeheUWuV5i9uq/DOlxgQv1HcCQ2egpB/6haPUauUIYQsGoLtW5BCf+/1rMaOv3W9xEKFJnwGKaAsvfHGrZEG58RLcB+vhedx6PAMXJYEQ8s2XWk/lokQCoawJKKvwkp5y24KiX+R4yclLndMlCfaImTRpc6ODl9VxQENJIIUBY+K4Jgxp61x/+3wfRI7wtYZAyKwmGAoBAodw7cm9/kZBNn1yD5+XVA82CAKuC9QXlJQSNNKQqUvGPm6GC5TkUEoJFkGIrwRQnvqy5nJmzlREleepUvJijj8Kyh7DkhoBQEgtZJykS4ocCWATomHvjdUwxPiPNFmCk8dJda1cfmIHQblilYPIPiTQeMz4lt6VaOfVQWetQCgPmfdmuxDWY2CVkq584qxIICAtIv0ECBA2B1Hebhjf2Bqlw7bmX1R53o9huzwmDRn0GfClNlgSJGBePjbeDjENucU4eKFJQUJJTfcEoPEMm+f21bOlHXBqHEoFmsoz2Ir2Lg5Gb6hS9YpOQ6nPnqCkJrUIgO69AcWuWLtgx9Kbldas3pu42Jr1Z4GrUVbkqjx5wUw/BgKMZijaZrbgPCUAwTHq89eDFyjpwEtquiRFhJjCiFPFhQAR0t51bz2t0Unw1KVudwEAYiSDKNqXg8286T2DUeVgSh0IIUCU1wnXghkh1iVtL5tf3hRU7g3tCE8jBMJyMQMo3bgqdf1EvDc7W4M3XtvdWO/39oZ7u8P9vSEgdhbCI8cWTt2+cvLUcvUuckKkKowAoOqSOkrS8UJ9pzB0qL9Y5uHXzWQQlHeR8ot0RS9GySwjwJrUBKnU/S0JGX1mdYulmyiK0exSjED29TF5z7zX3wVJasDU4gauxU0lfECPl7R2gRJQqk2XMCQqUHJ5SQdGv/wFn3tp66v/+cK5F7bWr/X296LhQA760XAQCQGtVrC01D58ZOGOuw9/+KO33npmxa2LQjmYFreh6BHwYrQLAg+ggBu80CWBvSkmNT6YuqRMeMwY9WwGk5Iah2jlJUFDSY2XLLpIq/g52Rle0Jv3KEnKFtGVdBskYcwzoowXAnVIRrULu1GfngCBakiT0Sjd3G3qc0Ve8url/T/67Re+/dVLg76UUUJA6FabjGR/v79xbXD+pZ0/f+zij/zkHX/1x25rt/ODdCEN87k35OuJXWRxFUA7o1WzVYGE3brUdcdLAsl7YyjptCw3ALN6hXVIuagv8lE8SQ+ssD6oh3kHX3lJ9ZkkNSCqahcExS3W9dSbIKKk8t5QkiBzFrfV7R43O1BWeZoV96hBXz79xLXf+/VnL7y6m/xgOqjCqrpS4t7u8FP/4cVrl/c+9tN3Hlrr6F2oz5Qh5btgu1YcQjjtWpXg85Lqsx8rB9n1JQGFcQDZxPEiQ0mR8JL2ldNwVLmHKEkzhzVIIoRkIQAKGbB0SVCQR40E0ssUESobJc1eZu1GRZUPBvI/f+78Z/7w5etXe+avoPE0RiBmOJBf/dM3lpbaH/2pM52FoKSLEjmYGYoTQMnSDhI/RvpVUJKmm+cly6+HVCNObqFkr+cUPUJGAEtqTb2Nc3Xsge4A7Bk+ZS5QIgdtvuvA5r1B3QEtgBgvqQcbWdJ7MA/ccRQ6ESetamrN9e5LXvBXH73wyd9/6frVXq4TyoGF/V706GfPP/n1y+VdFApRFAlUJ0pSfn+MBk3sou6ocuK7RjRQkqmk17I3AGQnTVMC3RFQ8nlJblS5nyjJ5aDRQEn79VKRhmAU6h87JES92gUhEkhKTb1loSQQ4ygdGH0Syzv+Bb/y4tbv/fpzm+t98w7Gsa57O8NP/ObZ7a0+X5fM/T4LJXkqj7DXiUCl7SS3UAr8+XnmKujbjz1D0SyHXoPPyljMpKRJrdJiLdUu/EdJq9SYJcbEVhAFwgDTI78FkA6xMaQmlSky1VWC9ybX7I+Jzl/oT9N6fckLjiL8nV97dnszd0Q17/BrALh6affrj7xe2EVRMxU3xVmV38Ic0qjU1jGBtjjt6ir6GFVu7A00SNLOv6xHgwaJ2dF99jC6XJbbTEaVUzno9EEJWiFx3nncwERJyO9wpC5Gm+VJEa2wyZYzefJbV86d3dJ7cICk+PpvfvlSFCFt5cAISpZfPgGUtA1JC+tLWJjSASFK9O7M1RE2lpKFVrcumdWjFIkb3WYbqhfhFC/V/CIq7KJSVDkp5DvnvSG5VkBDSZ61RPbeJEIkh0a4NIvwzUeVRxH+5bev7O0pdXKUoSNsCOlKu36lt36lz5pDNF0SGkFJlh8DETJEaib3hmV7CmDrkjXwkqjKIcd8RjlK5hY/AASzx0vS3jWiKkmXem8sQ9ItdAddUpBybwxeknRQYHFzvxOcGH3rC95c771+fkcmhXTRIA2BRAJqKw2GA7x+uVd+uYmSbrzk5J0MTO+Nji+eRJU7S10fSoLxYBPvjVWX1PxuGFhnoAOEsXRPty5q9d5gFsINAKQaQjhicfOZdyIQx0MSrDMXR5tL9SDV6qBU1q/1tzYHCCBSXVIAJLOZsiHo5ZJQoIT9/bF1scAFJZUuKbRbypqDLinyuqSFPtd/0o94SUcNWqQrhxI8FEmpFgunCwAGVaolTVJqiB20k2YLm0uUKOi6pPXdGaQhJXB1VOry1HIEKbXYWKv3Bm0boDtQ1rRy9vaG/X1F1uiKGzG3T30T8V44mqKTXWIc5wY+6JLI7sLIaPRk5XD9GClBzPDeoFZrlUP4qsuE9mfx9aqmoeCjpEVqBDlEHGI0jABAhCJoi7DtBS/pFEuvVA1SQn3MQYtMl6yLgwaA1HtjuUOKqFxUF6CslVKJIpTS4CWRlI9RjC8igDjmnCAF4YSGuoMZTd2QUipiJLW8vIemK5vQnAB6XqagGW7aoVRklEwuohx+a7rRSKniNAs62se984P91wd7rw96VwbRHgYtaB8Kuzd3Fk+1F0+1OsdbYsxMbD6q3Hq90YUtOBHjO/J5VpNcRHEGgUyAmOS9IVZaYwPlxL03BT2AFHlIsgyKq+gx5xACNOa9SS+jJDUy877dUHKyHHS+iwJPnaWhVgSeHTzAPVoDJha4Kge48cT+1a/u7jzX37swiPpRbMSk6upOZ621dGf70IOLRz/QXbgpvzB94yXz1yfeDorFnZrDteiSmrpKKVOkBbqXt0pAWQelEmd8Jh9p3t6aUTK+LteFtSFP6hEpWLpkmgRZOk0rR5Vbr3dLjDF1SeL1KEAEIQkvsmVAO1ojO8k2s7jLbqFI3b86fO0PN69+da9/dYgIuRofMWIO1qONb0fbT/evP777pp89fPhdi6wuTBnqrwlk5k0EIMqPncERXbIOlMzyuO1Jk5CWQycFVfK83hOMKi9siCj13D67d6UBlETTQRSwqEyCscDmJREAC1CydEDNRpUTA1eRw0Fr8ZVIoxlyHLTdx40Aeu7NpBZz78rw+f/z6uuf2upfGSIawUajQCz35c7z/ef+x8uXPr0dD6T5qHImSopA2Ges1EOsakPJZEhJeo/l+kg7zDZEywxnaJRNljMBoPsxgO6AroySBMUQgI6SaRcsXRIMpwQlrLfZqHKa9yanSxIMjdQnnlxvexfmdKIY9ZiLQufykoVSD9ajF37l2vq39iHTqpLLyrpAOP8bG8PN6MSPLgfd5Jq6eUkg1gQqYGNLA0v0yCHC0TrxkALkSK1HAhFCMs0QThJwkzTK3NOvgZfMT2tkoGT8jUk8U1GS6YDm6JKQMwwJizNRPxlDmkBUefn1MPKuy7vAkWlNQkng+sSNTddm1KOmriZdTGT7iXbli//P9evf2gO+7Sn35cXPbF19dAcHCI1EldeSpDCSZ2XXPbXzuOm6ZNIBklBSZrokiQQAClA2wejndEmXMB2wPB1HlKQvzhglsyFRpDZPmqZRpaxijp5GleuKHonHpBdng1Gsp2gDWvAzMWmSkntz8ZGdy1/egbxWRZJCChxsRpc+ub13buCP94aXcQQo9WoXBOZdgzCexS0y7421i2xdp2WHJgGUVVhe1xdstT1z3JZtm2pAlxSjZYdKb4iHpDoh+TH06hh18AyVuCquiQRAcSjr+giQTgfjv2tVHQMyCCvV9WhS9y4NL35xGyQi5OOrCSiZXN+7MLz0iR3feEmWAzoZlD2DgIuSmE8Vt0eVg8ZLipBUsyNplgd6I06apTB06v6aeEndoUSpNcIzh8Ekhuj0meqiVl4SajvbAPIxdGXNXGmkMB0nw1DVELKH9SEYZUfKtbDrT+z3Lg5H9ga7Q0maDqWNx/d2zxackZvd0lBUOY+DHql2wdElBckZqFe7oEynSCip4/hKKkoCvR5lA+VMSIfMMFEypbeSLmrQJcG0uIEC3No0FdbKjCYJQCp5W5GXrMV7gyhRR0kWLwmE+IdJ6ZLUIZV3IQe4fbY32B3qKSKE+CdA0FFSCBCI4o1PbI29vuaaQA5d6ChJkxoNXhKY0EFIFdfd7gKA4lDKNVI9yrq9N8QX5oCSxGmdXcyOl9TLoYO9hhj78Ouc7Slg0pFA1TloFhBTXCW5gwRIuTSOToZ4QBRFD6XpqSvvYrgp9y8P1VOi2Z6A5uHXil3d+ov94aYsuMVTXjJDSUK1i+REh6QLWrCBkQ5kjX8AkMaOyK7aCxSgbIqXtDUHlBR0lIyv46kwoKWIEHXJnNS2eYq5IdnxRXrnvcmhJMWPYfqsCOnDTlFfCIgpSrKOaaRIPdyLhjvDVAaK1IhCmgV4MinkHu69kre+K6JkLevaASVFFpXlgpKEMxTTISEA0L03uWZ5uH4UEB0NZpw8SkbcEM4ClKQuZqAU+hzxY9j1kYIAN0urm9EHk40laVVCPzSiFpQ0apuTkia16USTOhrItFQgZf1jjpfMXY8IvQtD82+ajione+oylLReL4UEUD7rwH5cc24R2TMU894bB10ybo7VgwYDubc77PWjwSAaDqLhEAEgDINut7W03F5ebo+TmPmCEQCcSEPN5CE8GoM0ZPOStdBnpkOJ8nolAKa0kHtUuYywvyv7u9GwJ0UAQShanaCzFLYWAyT7MRIZclILoqcu1vOoId8OKJlcn3kAxvaCAAAS1TjIge5BG4KOIAAxxntD+nUML4Egd1G7h42Sw14kd6XsIQxBYBCFkWhB0BHBkhCdAolYmy6mqCcSGUjem5hgSW4hKHp5lwahik0uEsgZJcEBKLc2+y+c3Tj7/MbLL29evbK3szPY2xns7AxlhN1u+8SJ7uk7Dt13/9F77ztyyy1LwlS93VBSpCuHjZI0c1gjklhd6EOaMH1m1gSB8i4QQGjqLZ2XVNfHkIcSr7y898YzO5ee373y0t7O1UHYEp2lcPlo++jti8ff3D1+1+LhWxaCsKbIZACQ2Y8SvMOIiJK6mCFVDNPFrNzo5b1I9a4JJ1NnUotQBGFA9t4krUTjxtSO5z7Y4Wa0+0J/7/l+75Xh8IrEbYB9EB3RWglaR4OFO9oLt7cW7mq1b85whw3EiDKTwh7/ZHLQCsJ4i0jqMciFXQgFxKQQztJ/ZQLlk09e+cLnXn32e9evXNkDqVXVRQEAw8Fga3Pw0tnNr/zZhbvfsvbhh2996AduWuwmXTjxkqOkYUkz1U/K8SyaHyO9xdpGj/y2dMFFSVODBkodB/XvAdN7AylQbl3uP/GpS6/95fb1V3vDnlINYOfq4Pqr++ef2OwsiaO3d29/96G3/vUTS2uWzdwFJROtCtVKs8mMUmJckczpwVrCb2PgzgW6Ww3DbC4JQggX4GgBDrrtSZF6+8netc/t7H2vP7giBWKgHX49gEgAbH+t11oJOmdaK+9eWPngYut44FqfgaG4pQmsqLG3EzbIzNRy67tDCbL8RxlA+SeffeV3f+e5zY2+lEm2LQAolNRF7feip5+69spLW6+d3/47P3t3ux042Z6JNoVAiYnBInPY0opCOEvv4gG3C16YtYpJ1W4ylYccn6A+h2EICOe+vfnV33r96st70VCrJ292MdjDi8/uXH2pd+7rWw//89Nrb1qEMc1hR9TzuElRoqCV1GboknSjHkFDMe5iBlIkYC7ve/Kxsdc+u3PpdzaHm4nuVezZR4i2cO/JQe+54c63+kd/fqlzZ7ILcuwGhs/a9PYQKpU4oiQCCEEcEki0USSkOMrhUP7Wb37vV//tU9ev96REoYXdpEEW+aEg4s724I//8MXf/H+fGQzkCCSVNITE9swY/TpQMhdzS1k5LJQEZrkBTatKumBVTgQAADsJk5MaJb705xuP/JtzF1/YjYaYuxhzXaCIenj5+b1P/cuz57+zhTJ/fdy4UrOTrF3iGSR9OqGp61FQEka3n3IFxlR5SBmNHLzAIV78zc3XfnV9sJ5ErwY2dVXuy50n9l//n67v/WUf0GHTFQGG1gdrJlkzqAwg74hRGs8ABKkxRcnynwUKUPb78k+/+OrnP3cuVchztieUP53P/6dX/vgPXhj0JQA5qjzjC2hVe5koieyjQZFrcQOwTx8tQknbqDjpOoVz7rWnth/9v1/dvNgfc5MspDJ2rw/+7N+cP/fNLeXYVV2wpc62H1oMDWQhU0LQqt1w6DMAAH3lJFJbHix3OumVTUjqKqA6bsGOkn28/sXdq5/fwVSFIcY/ocDhunzjf9nY+9bA7lA28yasxR/BqHahdElLF86B7sTCwOpoHWuzjhVefHHj059+eWOzD+mOn/5bnN5sNww//5lXnvzOFXJYX7b5o82PkXaRDYmCkizX7RggppjDSRcOuqR1ZzaBm4SSo1Hlmxf7f/bvXtt8o+CUSo2hQzUkvYPNC/2/+P2L189l9zrwDHrUN0FqHSVjkGQHuhOGpAczCvsBZE5Sj9T4KBdcMngGhL0X+1c+vTXcjMDQiEvuQP0MRdyGa7+x23uBkzQp7LFrciSWftIPNvHexHdYUTIekkJJa9S6pft+P3rssddefXUbYvpMWzmEkJWEx9zaHHz5S69vrI9TW7ImpVa3l1kiN/UO28bEA0oXXbIiSlJ0STSkJpWKyEmNCF/5rfMXn98dc4ea1mIMCYCXn9976lOXYwPcMTGGURNIvQhMhkQwDA2pSRZ0/SiZjyq3oph2PaEL2cfrj+3unx8CDSXB3K7iwuCD14cbn9mT28Wq1mjkkD0dVRi5NxR1lc9LMlASAFOURAAVuF7WbF6z7cFjj74upU4akiINY848GRTCs8+sv/DcRvktekAsEox6B5TkxtxWQUkg8pJQweJGIKSKF0t94ZntF7+xqbEcepMjUhd0ghKf/9PrV17YqxxLT7K4UQE3xEUQyjsxpCadDmaiJLGwlvpM81mNRpXTUZLURX9zuP7YXhwtRitvakidVNOJYO/Jwf6zxUplzi1ePh6Tl7S7VjABYh5KRvkjwq3eGzUDRUBL77EM4tvfvrS52Rvx3rDwQiCKzfXB899b7/XGVkI2q+nwzNu4F6uo1XhJ4KIkiaFDHkoatioApdJiYZ0YlPjdL1wd9orSh829oVzlkRK/8ZsXoiGjsolOMgJNl8wdQEY4RsmQGmzVtyD2oXMigYA5nTBfE4j7roUYdzajOaTtNCucGMJpomQ2nYaXo/1nBtjPb0dcDhq1ahdEqjSrwkvMm+C6xUCicovTUBKsQPnEE1dGtCpri4FUVz8BAF46u7mzbd+jBGmWmkOy0lvsqt2jFjeroAbpNEFdaqJWZfKS7vbL1pXB1XN7RW5rltQAgK8/tbnxem+0izIpGLrkCHBzToBIDEPCkFCkSU187w3ZoWQY9bbrtQwipLlKpASAnSd7gqi4gdSlzl0vAHrPDyPN+uZKjWa1CzpKkrvAdPtJBkyMBEp5SaVLkprluvPnt1TXZF0SFEqiNq3feH1nf69AoxwJcCUEA+UVPSpDp/wYlt9nOogAwERJ+/U5lLSKPKLoMaLKR6W+9ure7vWRIgtGF0G5UY+pyoMSX3tiix4vSecl0RwSqZrGCINW/q71FJHUVrVLzffe6OpqUP7u0gebakk0qdV06p0fUkpeKl1SpBb3aC+D1yLcU3ZknpcsH0+u/lOcoVgqBkoeSqaEb7rvBjbCF81IoIC2/ahmCTi/dm0PUvrcjl8QP4y8Lhm3zc3+cJi39fhFFvT0QaD5MRiUSt6ip5IA+jcmStqz0dGUmgTc+swelXrn6qC3m9u0cihJ3BsQAK6+uMeNZ6CF6WB2jBrpRRgPlmgYxj8pgCg1Dy8AQJ1kDTSpuT5xMKWOriKRjTWHVHBLtCHj43q4HDSkYTrxSAJ7IXE0NGiIywJYmpSS471JUFKTmqpLxs0ClJsbvVQxJHgZTV4yd32/JyMz7E4nkjgomXykGIYAmXnJDOGkoyRm1zBRkqI+51K/WfQZjJG6txtFA/1d6JWQ7O86HlIqtti5NCy9HCCZ1up+Il6o1G97PUpwqNqtoSQpQzEBbvqmC0Un01K6SO6wut1hROpoE0tmFAKA4eMue7DYQ4wARmPpbSJwj/w1zr0BkjlsQAftSL6cz4quS8bNApRJGg5Jl7TYnmiAZN5jWANKZsBNTZrMq6tElFTfeJu/qkc5yhRqHeSoT/ta1omkcU91sC+jgVT36LGxRJVHoSSgGOyXlSeA3N7ggBe0B5teTeKg05UTm0BWKiOp8SPSLgh1IuL46nTcJIZO6wLs9WihUGpZDhlZJSQ7VYoAbDZWrwkkBOFQmrwuSSP31Wdyanl8C8N7k2sWoMSkKEPZJQKUFSYcGDoCSiKApq7SnAwK8gQAMeaOA8TmkMARJS1D0nVJm8qDAIj5lTOui5iNEFkX8TukGPWov+vENizFSZONJVAlkNX4IeVxlrKxxXcYvGQtSZOIEhh7A45Y3PYHpR4sRWoESKNEheqifDoBxKd3BMBgY9UOR6roDnzS0FhEVF0y3j0El5fUm7UoBpGrgmTWEU6A4qNkFdcKCMJBRVKPdOd3URNK5sJ0bANC1HgGimKV64JAAsRoigmvypRaEAIaiqS2ScHMIChCSYutak4nJrti3+EQkmo68Xe7py7fBeldFx8yUTIqVqB7Wo8ygQJKCDdmqV+CuzdAXHaEpa7SHuy45li4N+k7s9pih4/9FiaR5OLHMBJdmHOOXbUXSFpSNTZWcEkAKhvLi6VXdkNyi50+z+0NhGktlLpKQ0k+L2ko6ZQHG9f4Sc3VwGowjaKk5fdNdsU5NrasD83HHVAyjsyMAKpnP3OtkFAy7kLxklwOWgoL4RPncasX56xLxs0dYjUrDCB1+JRfL6WBF/bf160wwrIBg9uCGsJ0wJSa2oX6zNYlgVQxIVMWiCgpGCiZhnqo2uOCcAq5swYdr2e79wbN0zvI3htDq7ImQXO9MQZKEhZ/LqqccMgM/1ThkUpIVpTUY+Nph9kyawKN1B7nqhrWIel53BTvjV6mpLA5a5RaPUogGW66ykPUquIukEefqW88TV4ItuJWv8UN5CEJAGqWm5SZC5oYnGhuPzWhJGh2CcHiBpkQxSTvjULJZLoSXStqKGyUJJ1MLTMtAO0nwADbZ5WgZKpVsSxuIYiQlNegGQmsAoKA76mjPVgdJSnqrSzfEFyAUmiLOfX22N6ZllFB4yXzASu2QY1CmKXlFjMhdGvUAT1JlIzpMM0BDQStCs2cZ6uPkadBp0PS1NvadEkBoCxuuxNASx+mM3REEnCElyQVZ8tLHVg0FBO4gVhzjMlL5iKByr03CKDXBgVr4DoUxDMQHETKs087EJElNWbxDBj70Cm6pNWKB0eNUscLEGiLudf/mei90QNWnHRJS6vkdqeNqmIsPWH7Ga1HaWnMpMlcF3XEM+gaNKlqL4Ch3hJ5SdNBRIhxMY/WqcFu0IOfKbokSi1vgkLuS41JZ+mS8Y5FCuHOpBYB2HYGk8qg1AQBp+mk7ADCOTmxxm1HSeADpb4cYx+3dTFDym1BEBAK9mTnbwCSGP26URIAYKQLqwbthpLZ/XyUtNySSwfisLFEc7WKLhmPyT4kdWiEABGGRFuVtzeYJzTwdUmOAxoACN5elBqDRiwMrKJESfXizGIrFKp0NJ6hnOYzCd/ipMlc47Ox+dwboi5JWP88oIxRMmH00bqDZNcDgKqcVnpDclBRcjcNL4wOrV046ZLZyqEAMYuNxVELmuBdMUCFH6ZjrSBoOKBr4xk0H5S9jIgeowcQJzVZ2kg9SmsStOEMrAcltUggUiRgHAYYi8yKpU/MPYeQby67EiQLZCwixN6bVHhwYssAACAASURBVEkneG+0iGAge2/MqpqWdY0AURLPJABEaJt+VKAUhvfGnq4jkv9R6TBIWZj0S9pR6R1aCGet5jAkvZDOpVB/OkYCEZR0zCStQdHTdElSF+jUhR45CPaUMnW9gBj1bPv0CBtLsrjB1XtDkVpClr1Oy+PWFD1BAsqc94aGkkpqIZgEDsccFumQCFV1UarEJNqDNcqO2I8INxxKpPQeIlBq3htQDFpp0yYywULPJd7HvCfP9qwHJfVvPPOZdohd3jC06he6rVpbOhCko6Kc0QwAXF0yd1g2MQqdsemOlB0p15KSWHq61OCoQRs1gSjvOtt0gZQ3oRcSZwYnkUIgHPYGlZdJqnoV38JRNaQRJUpCyay2OY2NBSJQjuRxU1Ay47ZYumS6zfqAkkxdMkca2lESMc8z2FoBL1nWmpGaNa1HNWjC9czKrMxAd8hrVcwUESobm+VxkzKO9LJDRJRkBLoDZAydIGpVzq6VuBdCyDdKgUoLJnrqmOdlYqQVWyGiJJCAUls5lAxFfRvk6pJCCBFQ6lHq3yY/rYvwYsLAnStdZbU9836PulPLweKDViSj4KDkKF4wpWbHxlI4aKOQeF3xT0aNDzskZYuZRAKMsLF29VaDsPrYWP0wW4pDKY7vJYZwoqauCopRb0YCiZCMkmAFSp3RJ3hjDKuNrUsSa/yYDB2liwqRQHQNWv0AFyUJNYH4XXBj7vh7Qzyw5F2z8YLylMzth4KSubxvSoYypJWQUl3Scr1EB14yiysnVNXNjnMBMkpmiyjhJS0zSurbVS1srOaAttcEQsiOyhAQ53Fbu8DRmkDlQ0Jt++GhJBA0SoyXjS1YElJFrwGUVN9Ii5lpGHIhyQW4M5QUwqZLKpTMSL0GNGirSqIlHYjYzWDpwOQZyLqkjheW5uZQij+lhpvt+mxvcKtsYteqdIPMBcJKUTLVJVlSO7CxUmE95RwLBIhrlcdDD8BeLjLHM5SjZCx1ltHIsbhVI3GUSLjEtNoArQDTBEpKzrTGIqN+wkPKS03gtnXzluIgdvXeqO8WKRAA1PFPBFSF3N7A92OkL6LsliqpogLsBA7qTgmHSCAqXmTv2k3Rs6dmmko6K/yWE0sfoxM1vF9LFWdKTTn8Nh8lSstrMBuhzBqPoaMU+nVASbbtqaMeU5cUaRdQ2ktllAyC2HU1bh8aia8kBNA6xtIrjZhQYUWdYEej23I8A82PofCiFsMQAFOsFwEJkoz8DVo8A2ZnrpJqApldsFPLiRmNSSUkwegiuYaOkhkhQ/LeGCGc9ngmDhsbN6lNpxBDNkYCAKFwr90e0RczodAvFyVdGDrdIg4ocwhRL0VTt/eGTp+l3wTYXgSa1i1t5QCYTgPKkLIfZcczUPwMbKo0x0ta7YZYakh/t5w0TIeiud2JKKlNp3LeIE2y1s694EtNO0vdGJLVbkCmQSYNO8Beq1w7NEIIEBRFLxceQzHIpFDpPfao8pJWsR6lgjCsh5esgpJqjDyVx8l7YxtQJZ7BjpLJxOaxsdzUT/X7CffEjmegnq+ZOFccuuA+WIKDCAEQ1Ti45+Xaq10kKKkNafJS6xnQRF1Sr2xE4SX1eMn0zEU7lZEuHqfpZNNWcyXsuN6bXKsClEp7JKJkLCkbJRWjz0ZJhzAdEkpmiXSUPEuHaV10AFGZ1iO4PIOAEcWNMqQaPXWa94bUBQJI6eJaUU/T6sdAA7hVEmTpLXmewc5LsiOHnJImIXmaFLc76NnoVJ4B1N5gOTYWNJSM70h1ybJbRqWWpSeQqGAjkRr19gSW0uasi6pIoAQlkTAOlrEAAMx8DARRESVJ1S606+u2uNPHbOlFaihJdEAzNGjTtaIqoVm6YEqtv2tBS9epEsyo3nXJ9oNGMTeKz9qMZ7AW7tMiB1UXdaFkcgsK65SVQqX30KK+zOlkRcmkizwHTUVJIhsrswdLyV7HyFZDyE2jZEcCAWTpPXQTSSSfKDExGqQCUfc0z+EMKIXBeRa6ky6pf6dw1RlK0uIl42mX3sLMIOD6uMkomTF0pC60qC/iygFeCPdobh9DlyTOcF6ZIkQmG5tsP8pVF5T6MTAZkk4ysmkr0mlfGmkYEFDSgY1Vp4qLxOIuvx4Qsh1xXHMq3JuhZFITyM6gaYuZYHGP2p4EYdUldVGlub+oSZdMf5aEFzJbLMwhAdC8N7pZzg1+JqOkGhERJYG96fL8GMp7I0ioWii13TCkkwAQx0uzeUldl+SeNMvcGwjAikkkUGIOuz7Y0uszlARCoDtg5oOyND5QFvgxLCiWHYhKtLgVCoOdO68fJePr2A6lilGiLF0yxhvLZl7AM9iGZD7YGlwreW+vXdEDlS0GIiCsHERNWSDlcSPIlHwnpQ+76pLpmChdMHkGMCCJVsxNJ3Bcor4Cw6Qr7MIsO0KJBHLaG3Tq03KHXmypvPGAUmiuFSTUBDMPjRCUGoK5SqvJz5S1ulGyMBLIOiSescCsRwli5KgMOkoKGn1Wv/cGWIQvZsCNACKAwF5V01R5rAROOiTlvSElTVbhoIVtOunqLbCTrIUgadAFZ6jZ9qu81AJEifWKAMaxjvWklsvMs28veYnGAWd2jZvhzBEmV0XRqkzXir3pNY0p+RigF4vm255klHSUmuPHUN8puqSWds90uwNAEARhSwTlsX0GSgblJW/DjnAOWEluITklNR80n4MmYb3hvXHBC8vvJ12A2YVNl9SmEwclFW9gafqQiCHfIyhpaZr3hhac5OS9Sb+RfNxSoAoUpUhtebULC7HKmekXCJSTaU1dEgQAtNph+SPVURJJilve9iwfUu4FU491rRUlEQ0yi8nQUTIawTzELpa6tRgErfH35aW2tPZKUIU+I6QDoXYLye0O5nQSGJY+WEzN4cztXocuWbQ3WFCSycYCLGbZpZSCPRLGut1FG0YND4e9QT/8luTtAePkOCIvqaQOCRy0BJnGM5EcSmAFyrW1DoDuvSHXldFVHhQAYmmpFY5xu+XpM/spIlCEkhMmkoBne6Kp3hJRkqdLjhRZsC9mhRe61Etr7U63eJ/Q6z4ALSbu8C2d0S5sIuiKm02IalIT0gdBudFFiheT1iWNktokP4auS4Kdtoqlbh1OXiuF3Nd3rNHSEsFSAGHuBhcOOqekW4ckIT2xjOG9AUjZWCt0aIdGiIBUbAnACpS33bai4wXhnBwwIEbDl6PHFzsLBd2lYQ+xP8JOnwFA0WG29aEkRV11cSgZKYckP4Z7lGhO6kMnFxZXi4BS6FhP2a4QhDz+5u5oF2MHxUNJl72BGa6LOiRZ4yvBaTrl/Bg8lKSFcMZSL9zWElTvTYaShd6b8HgQLGR/6eaAVvGSxCEp1AuCwBqLwt1+cAQlKZtoMp7yf37ggaMmStJtz3wU+q23LXe7Bb4jfWYHyTG8pb2IUUiysbaVvDdEvMgNyXaDiZJWIHbAixKpj962uHKsk+sUR+KxLcZqHOMSilPft0rWLwy8sFycsz3JUmebLs0cTiJiCLwkOtqe+t5gna5gAjc1TCeWevn+BaL3Rjs+oThKvHNbS3SF3kUiAidMJ/4a2AlfEyUJ9SjjB0unPtGIpYeAUM9JbxaB3/3ukwudMOmHoFVl3lvz+rAl7rpnbXmlnbsniiKFFyTS0DAMKTymhkcM7436Fv+4TXDj3+0PX5caCGct6aOi0Gdg+jFGpV5YDm97+6pGU+azVigOpfiWOx46vHSkTUFJiQYJSOhAjmjQNquKeXTfqGvFOqQsV49se5oaNFuXtHahS7320JKuBo78eDwkHJF65JaWWLinFa4EMBmUtNxhWtDUvAk1nSh53NIkAQhnqRvNcvXRo4vvfd/NphZX2OK482xa566/7fTqW+49ojtzckQSFSU5tqeOqoQuEHQRgLg4C4G1rBn0GSXLjem9IT7Y+z58dPVEB5IdbVRq26gEIsDCSvjOj99MQkmz7AgFL3IatDX+iTWdksjBZECk1C+ua8X03hAtbgSmxZ2Tun00PPS+xZJ+JOTyMosF75xuLd7bhsDZZ0W1uCGtPR5/Dgi1yg2pSZFAhtQUH/dos4xpcbH1kY/cdvz4UulVJsSMzLmFhfC977/pttMr2Q3MZKykFy5Kcj2G2jbIRkm0jyo35wRJcobFHVdaI07rleOdh37mltaCGSfMcSiFLfHWj544env53DAMw1SXZKPk5DloPSTbrriZfg9KFxgnuqR3kDhomUX2uCZNBoti7eGl9vFxnrqsJlBJF2JBLL+/0zkdOjxYM4+b9K41qQOK1Jo1RirOJrUqmZRjGgubZVhhGLztbccefvjWxcVxoelKl0QAKIwcuu+Bow//0K3tdtYXEygRKqEk7QB1NPCC5r3J8Qw8P0O51GiqMASUjJcOYzHf/YEj7/ixE0HIMOqVz1oIOP2ew/f90HGr782Qmqyupl9IKMn23gitoA5zSMRNV2o4SUNJ3QHNwwtjSAKW39o58nA3WDQJ6JhnMLw3Y9XV7gPtQz/UhRZUsLhJed+aayWBMDuPprs0KLqkXuOjQqU1i/BCiG639bd+/M3vf+jmsUKUhgGfPrP6X/2zB9aOLKi/yfGStaIkAInlMUhDx2JulluYUoNBfRKj0EEjPgmLWQT49h87+cCPnBQBaW/Qy47dfN/Ke/7uqdh4L2m61IGwOIigyPak8JKGM9DSMsNQQJntmY7HBG5CmA7E7ArqqGfZEWXB3mBpJVIHXXHsx1cOPbSoPWxUYTpWDXrhTOvkPzsUrIlaURJAsbGJokcJZtSltkRlx9eLqha3aqQUxqWl1j/+pw8cPtz50pfOb28NMosiK7Ymkr8A9U+i2229/V3Hf+kfvW31ULac9DBgAi+pHEQCwAElgXA9O38j7UJdRkJJ9ZnGxvLinxx4hnjOLSyH7/vpWxaWWk9/8dre9YGuVed/H+J6TqKzFJ56YPUDv3zbynE7SqrPxDOahbHpEhzKRVGiZbdopSgokUApsCbX6McXjWu61JR046K9gdrFOKnDJXHqnx4ODwcbX9qLtiQiUlAy6Iqld3VO/KPVYJWLkqBVh+SipKBkKMGI1OX1KCGJx0y9sZXrUVJzvTud8B/80lvvf/DYFz537oXnN9bXewL1SCDQj2lcXGzdedfh9//AzR/88Cnl6ebzklxdMueNsdejBXOP4uuSYF/MTKkRAIyaQJSKCdlypPIMmtSLq+33/cypW+5befbR65ee3dm61JeRcXFSQyjApbX2iTcvnXlo7S0fORa2GeYwTepMXSX5MQCllLF6R00VHUmCKlk8yfXau7YeGw2mz4qiDsfqqsiGxCh5WS616Iibf+nQ8gOda5/b2XuhP9xAgWPjn8QiLN7VXvmBhUMf7oplnsUNZjwDzXujDiATQAj5dqFKjShRq1GP0lYkhlcU4z3vuenuu9aeffb6d7975ZWXN197dXtzYyAjjJfD8nL71JuWT59evfetR99y79pNNy+pVJxcVDmNl4yzywFJ3FYhSnKsNkHSLxxQkiM15HRJgj2SqbfEcP2Co/tCuOPdh299YPWNZ3euvLR39aW99dd7/Z1osC9bbdFeClZPtI+d6R69Y/Gmt6wsH+kQ1CT+pqhME+LRfZAYVVRPXYJ6iWlCOKEh4zEpBX4g/2DtUku9lijN28tkY2H53Z3Om8O9Z/u7zwwGL0f9c1G0oZL3IFgWnTe1Fk63um9td+/ttG4OIWDn3kgp6TwDZFInO2Jg204c5pKEOHZNCOq5F0Z2aWHjVg+CI0cX3vu+kw88eHR3Z7C7N+z35O5uFEW4stJeXAy73dbScmtpqZ0TJx9VbmmYY+goFnQVXZJ9yAzBMASm1LFWxdclTZ7BJkSJ1K2F4NYHV0+9baW/Kwf7kRwiRogCRICthaCzFLY61mSJfBeEMB1IjXpIUdI+rSGNNGYFM6abtt3JoN61QklWtZswDIe2gDrUgJt0mmDIjhKVUiJg60iw+tDi6ju7chflLuI+RjsIEYYrgVgUQVeEy0GwJEC4ZCjq8QxWBzSmFnf8rol7A0tqzLOxhAwCAkqCQz3KePEvLoaLi+Ex2tN04iXVNz4vOXmUHFFXCcDN5yU16pNwmOWo1BMpXRWEYnE1jBMcHVaOq9RAREnNQgeg8QxmyDexOFMWRUOpPDAqtQhFML6guASpkrFJ6qrAYC37Rnmw+XfdFWEX4NjY66u9axFAYC0SXjGWniR15qmjHX4LKLXS9yWNB5RVniZ189dKRSDD9lTfXGxPy+/r6i3NqFeJLkSGTi+2ZDXq89fDxFDS6MVJv1DX03lJjaGzEXSg/ClCgAiphqH6ARJpCKn3RtAyiAqlDhZFuFQ8PHaUKCAEsHiqBS6KXu3vOr6lvB4lpHtDcj0G1vRB7pASdRX0Cu1WEkAvSWe5mAGU7KGzyYVC14oVJfVvNaEky+2eR0lbvCTkqE8SQ6e/WC4bW8PK4bKxKb9IV/Tin07ZNQBiEWjM02e2USkrjFAOWe8iJ3XYDTrHQhEKiDL4wAQl0x9FQTzWtb3WWry17RVK6l0ENtNVLyROsbiBDx2Yrwlk4aAloFSbLmFI1ITHKisHaNLqT59Wj3K0qq6lVeYlKdebOy0PJSnUp4+6JPNdG/HVRF0SdZTEwOBmi5q56ZKy11XqtwMvmZNaBLB8utNaNh5drsaH3Y+Rqjxr71sMu2yCuBmUJPisUM84KoekmDSUTBeoHImltw5JVSoRSXWMSWiUFTVzLqWSQiTL4rajmBHgxkZJ4FKlJIYui6sASj1a1G1V8EKXBCYvmZ7owPBjaLokAIC17BCMmCa8EnZAQkmr1IfettBZC4ebEcBosBEhQxGSA8hEC07+6KonKMnloGUqBRB1yTT+Mf5Cklrz3gSEpKY0ciilMknVb2mu29qfpr4zk1wlxrQm4oX6zEZJ9pDYJAC70hr4oktyPXXsqpqGkm4vzgZO7IoqqCOAdAAZRerFk61jD3XTPgw/BgUvEi1MwIkfXu3ebInth8bfNcnOMHVJCqeknehABGIdJUkhEzmHD8WTA5RIQK7FXVWTD6zTlK1LVrW4KVGcFdzuhJpAiR9DfackTTfAS7ItdO1BWQuJYwFKTphd0evXpk4AQmIcWepb/sah7h2dEe8NMR0QAGD57s5Nf3PVNqKmPXWEBxtHlWfVLmzeG0TASD/RgbDp6tUu0iSFsZ2gWaZIQMBK/bapqXUy+lARwoCmkqCb90b//RqBm/T7AKYGzc6ArtV7AzQOGtFASa7dUMfeoOuSgJRawihxLC852jpHwzf/l0cWbk7XPCVyUGNvF9/UPvV31hZOWvixhnlJGgeta9DWMB3MK3oEPU8i6tUuKA9W6lQpLadeNZIzx4HRJ7G8taMkglknwsl7UydKCrouqStiltaw94b6rg23mz1D0SyHXgPPYBTsISVN6iGZRKlX7+2c+cUjize3SJXTNKk7J1q3/fzaoXcsivHxmOCf9yat8ZGiHimYMa4lrEhD5o5IKlNkFAameG9yze7MaYCXrEmX1PGFHQkEUDdKBkEQiEBk3pziMeVqj5f//mgXHvCSuTAdEiSNxDNMHCVjlUekmyEFVbPIZJbUR9+z1L2l8+K/vb79dK/kZetdLN/dufu/PemDLulQ2SSVQuVxW+7IHNCEKrzAREnIdjiIXzWli9FmeRPcp1lPhEHO9qSjJJC7gBwJaOMZXYbEtF/AzFC00GeYLoPGVg41wE3TPcneG0ir9JAKgzugZJahmLjRbbah2q6c4qVWTi/c9y9OXPzc1pU/2x1ck9GOxMi8HEC0sb0SLp5qHfvg0k1//ZAoOU8YABqPKieWHWH5rAxvD821UhQba+kizb0RIjk0wqVZgLLuqHJ+YgyQTvtS1boAAhp9ls2JbAVZu1D316HyjDJ0ljsQMkSqj5dU1xN5yawLQthNkdSTfbCZ211APLPKphPGf+ibLlfq9MG218JbP7528gdXN57Y332l37sYRTtS9hAEBIsiXIHFW1pLZzqr9y10juRLJVSWuoF4ScSs2gVQDqXRqAzhoEsKYVdXWSGc5Y2d6623+r03hShpa7rVBtbYxBxKEnlJ/VstTgZmjQ9k8gwNRJUXSk2hMuIdri7vzYgD2qpLpqga6562d1E+pM6x8MTDyxgtDbel3EM5QAQUbQi7IlwJ6oGwBnjJXO4N3RyO3zFblwyCAHVNpayL+Iuwlk8vb5WAkqWZA7EoQ8zbASjSMOE7gIiSuSq8QRiWZgKwUVLpkkK7paw56JKCo1Xp9SipXTTLS9I1aJFyVVbvDQJEaT1KZheQdEGiSs10oAm9axGK9uEQDgPwgxN95CURs5PakuKPlhmrH0BGCVwdlbo8tRxByoxdsXtv0LYBuuuiNa2cdjtopafrGDXE7CiJIygpggAWu2PHZhqGQENJXjn0ahY3pQvTMCSUQWzae0NiY3U7gJRBgJhVuyA/2Ny7g1KjW8toJGpJfBqq9u2ngahyRESlapAS6rVcGlqhX/4ikpqqQTkvV4qo/AoXjTL39CfLS64cai8tt/T1j6R8jGJ8aXeCw0cXim/IzyFC/bcKhYHJ3pvsK6VUhEYyUIMZq0Qac703JOoTADKHMvVY1yy3l4ySWheEpEYt0J1UJbP51Iz63zWvC1uNj5jwxXye1SRRMk6Qjd3ogua9MVF1bHOsRxl/roOXPHJ0Ye1IR7gwdOpbBmE33brUXS6QkTmHqvq4ObpkehktqTH7VZIWVm9NIKjss6KwK/otbF2SWNZMuW5J25ULhLH2Ercuao4qzxlkQfL/JdcDgpCozOF6dElMUJLqdpeGS2NsY5vek2D0y9piNzz95tVOJ4DYaVIBJQHg7Q+dGO3QYQ5xMxQT3gYAXKNE7bqkXkObUBPsBnlvbF2Q45+SEYk4sgcF2BPpAOI4AN17Q9hOVK5OZnGX3eKGkmr78RAlibH0WheEk2Y1KoNoNzijJGS8pOV6/ZjG8sYDSu6Zq24v+B3vPdFdamm6ZMldZSi5uBS+50M3F3YRf6bNIRwJ+WbwhnXwkmjgi0LJ0i6cuKp63zUAcmLpNXMbiTQA5oOTrGXNAEWkgJVrGLrRUNzra+Ilnd+1ECKwxTMggF7tojZeMqM+KdmokYaSoe16BlDqkca1Es9vun3l/R86leKRFSUzfUG/OGwFf/Nn78x5ciqjJEEx1A03Gi/JrQnEvb4hvyeTjdVRkqZLYsrJCoH2wFIjnoFk1Bd4b6zbD9eCbmwR0YfEjV1x4KC19EEIa0PJtAu7UW+mlpOKs5GAslbvTWEXH/vJO+9525HyO0rM4SAQ97/r2PsfNtRJJ5RkOqBNXZJCAhr8CCFrFWHs3jCui7qdDKxb0ERJAQIoKJlJTfSJG4dS2YAYc6nlNXlvak5g89FBxI0EQq1yGnVIiS4JkKIk3e1OJAGAWI+ydkZ/5OmvHur87D+89657D4+7owglhfqFN7/18Ed/6kx3uV3SRfmQTHWVVmkNDNKQxFXlUdLWRC5eevIrx4GXVF1Q9gbz3Qmw1/hAw7vCl5pyiBUYVhvJe8OS2n/vDZeXJEkNKPVqFwTm3Q0l488Caek92rpODyCbBFA6PM2JvODbz6z+3V++963fd6TgcJR8fKXQUfLuB9Y+/g/fctudK6rnpnRJ+vXpkLIkaJofo05dEsx3Vw8vqStulEpIiObeUIPUupNBAfGEvTce8pLNvmtS3oRxogMtG1VZ0AEpqhw0XlKEhMpGqlkeaP01gcZSJELAmbsO/ZN/+X1/7WO3Ly61ssM/x4R8BwEsLIYf/hu3/tf/w9tvu3NVlbSrjJKUWiPsU8h1qWn0WRO8pL5yrNc7+DEgb4WVtSJUrcUw1HlJu7eHU48ybvq79oSX5L5rBw5aau86sBO+2XncABAIkjNQ5yVp3hvlqRMUqlRvpDjKG2gsLC23f/qX7vnAD576yiMXnn3q+ub6/vZWf9hHAIhDSjvtYPVw+/CRhTvuPvT+j9xy5p5D3C5yg6qGksCkz4S1MqNGAggAUsnbKow+cfGzGX1EiZnUJF0SkkPyANT2U4piLrpk9q4JXBUiZGxJTYSvn94bV15SADExJjtpFgJgSp3UKi8fEmi0OOnQiFwj1aNswHtT8vSFgNvPrL7pF1Yuv7Fz4dXtS2/s7W4P+30UAAuLreWV9slburfctnz0+GJoVqZivmDTfAYg+LgBkoopIvkB5tEaJJ94ghdqSBOOBGqYg6a4SrQDyOLvwl52aLzUhcMbiSonVMdIYlcFeEMaethFWtZM1yUtd0htxyLVlxxJB7INyQhOInpvcm0yQNnACxYCT9zcPXFzFwCECKIIBUDYCsZ15dBFUbWLckGksy4p0oNHRMY7FtwBAnRe0l5rQHoXVZ5DSYoFnYv6sufSlL7roOBgriRFBEAENKpUAiapHq0pyb2pxd9g+rhpSdaoFg8bJWlnKOZIAKL3JtcsQFk3pQI05X/0pNnyUzUq2iN87w2wDEMglUHNnUxLiBziL86GOWhKTaCYg04JZnuAm/Vdt1fD/B2aFZZyWzYNVyAABG3RWrL7PaCewlrGkHysbGJ4bwIqBy1jI4kYuGo8WHsXCUoKAAdeUm/u1YPiVmXlCHLMrfpcI7edfCSF6RV5b+ybsxoS5YQ5ZgwNAEhIneg1rRyu7gm50veCQPhqnn1iwR7ru1451THuMDwAIvk47vcB9HOyWt1w4bDdCJvJqPIC742lB8gXZ2PZDaG9ik1el3RGSahej9I3Y8GNodO+E1GyRicD6qQkCKu6igBCIwG4UtO9N7UGriMAQHYojdWNlmjQ0r6Yj7xlMRuUBo2C8u6SQyOSd91ZbXVvbpdd798M17sgctAuvCQoICYlxmgcsaAk1I8OSetxTBcCUwcRKYSz9F8raJRTg5IZUNKqXdQa1pd6DLTe7Opqdn3gR1S5G0qmhKwgWWGAkoCSAHDs/m57KdArJetlKgAAIABJREFUswEkQFxeEyx3HncgRPdka+lNY4HSf16ytndtWNzkKnnxu7Yfu+gUz6AFG9lOkAcD6IubI1BOAUqCObODILDqF/WjJEBBvCR1SETdsPZIY4cXIbQQKEq8pG612bpYWGud+isrZkim3TAEkKqMULyYg5Y49q6l1lJxXziTUeWQGPUMn7UUUgUPBYTTOBxQUquOQRtSWg69pLkA5QSjyifVhSMvqc8hkveGgZLAlFr5MVQXrMqJAABgJ2EaiCrnSs1Osjb3Bsq7vvvjR1vd9GcpRn2qforMASU6R1un/urquLtmMKocDJqbkmQNZpK1PbvUhQQQElOy3hrojnFqOaFwLxsoHV6wh9w2szyBA0qypS5CSduomOk6FSOHKFYYW2rIUJJUeDwLvwchqJvuwlp4108cDRcCUnCSvnJQAAQAorUc3PPLx8NuQXd+zvDao8o1qYGQPgixWyyz0CePksA/ZAIJumTceEA5BRZ37nrCzpmLBKL4uHkqT8LQZd+tiiSYwG1HSd0wJDL6DfCSBm9IyAXWUFLEhXvLuwA1nQTc9pFDtzx0KGiXoVjOxx2rPAKgtSRO/63DJ969VHCLfzO8gS7yO6iwx67Jogc7ySFpBThoDiXD4g5s/gkGUE7BCwa2feGiS7JRUuiB6yRdEnWUJMTcOnhvuC+Cp3smPit95RBfRMpjFtRKKZOie7Tzlp86dtN7l0UZVBah5HJw+48evu1jh0cH6L/3hhhVzt0RleAiyZuwDAn1aheUI79ddEkGSgJgqkvGfgH7oRHU8KCGA2I9ibmtgpJA5CXBzeIW6f324mxNHvUH5Fh6UE+TbHHHoR6xOmk1mEalXjnV+b5/ctPzJ1ov/fH1kQiHfDG3WIdoHwru+rljt3x4NVwoGKGfzLv67A0HrfK+7a4VTIBYxs+fY3HHhh7tKB7N7R4gKb2HBJQVo8odKBUf5lDevGWiJKkL5KFkLl2HUmmx4ZVj7UI3n4GmS+Z8Vtba5jBOagHtleCtv3jilu9fOfsH19ef3R/uoexLbVQAAEKI1kLYXgqOv3v5zN9eWzpVHA80LSfN8jRidpKCVu2CVnYEpAo2IA7JyOMmMPV60gENJYEClB4aCxUpFcriN/O4hY2jQAA9sodyJpohNU2r0vSoxOIuv4EttYP3hh3gZtb4oOwNmtR2DwAQKiEdua/7jv9mceP5/atP7W2+2OtvDaN+hBGEbdFaDBePtA+/eeHY25dWbu8Ujs7DGQ4jUtdN7lPsBlNJJ+XqSIEhVZfEVF0FIEcCpTU7AJIQTir3aAHKqUFJjh+j0Htja04o2eoEIChdxHMuG1LhhBACdNEa4CXZBDEweMmcz4rmsKZqxOGCOHp/9+j93eF+tL8+jPakjLC9ELaWws6hMGiP7ch/XrIBDjp//Qj9M4qStmMaMVX0BIQQtGjOQKHUVVXycvyLMz11scVN0ZjiZgHKg46SYL5jciSQ+kb0cevfGIt5ea1tdf/RhxS2hSpvnIs0pg8JanwRkqNfAEB8slvMxlJehIsfQ7She6JFvN7PGe4gtQNKliwi0cm9GUxLUSS8pK0SGurxD8FiECzTZiwnHSh2u2skAC/gh8RR1sHog7/eG/WRiJKYXcO0uE/ethQEQipTtOj3NdtTAEBJAO3CctjpBnBD69KXdaG+0EwkECr1W1jrUYJ/fgxoBCUbqGxi5aCDtUCkQGJWWqNVNknPvYm9MeFqGBxhvGuSg0gD4jjPiq5LJr3Yr+C/YH9qAnGGlIsEAjJKqm9slefkbctLh0uLLOS7GCt10BKrxzrtxYB71B935WC1+GriytHC7+3HrUAD1XFmPqq8ROpwLRBrQXIHZGE6gnAoTf6kWRGENwXBWtnADKmpqeUJdtO9N7lmeVKeGAsViWeiHwMYrhKsjpJCiFYnePBDJ8b3YVb5Li2DurgSnjjTzUHeDWf0Ie+zIoR8ak5JQCpKKg66genkwwxvoAvGIgpg8R1tNBzK9jyrlDTUHNAYiK5oPdiC8duQITUpqlwBceK9YWNk3Ff5Px/EFwxOfgxp1BAi8BeVUTL+/O4fuWlxpYAAyaOk7feXj7VvuWeZLTU/0lj9vouTwWbyFEnNeLAeSu0JSlaU2vpglz7cwbYEE5IsXSSuFUPRC24K2u8YywcaUtvSgcDcdFk+7tHmfif4ipL5ahccbtshqpyiJZVIvXZy4X0fu7msCxpVet8Hj6wcSaz4+moCcdxiI11QH2xquBFQssq7prOxlaT2bIbTeUmWFOGpoPvBePqpEO6ypupFQmxxp6ni3Z9YEIeK++JKjSC1I78DZ10ybpWAcgq4bVeU1G9hdFEo9bt++KY77j+UOYQMILbjBQKeOLP4jo+ejK/yIaocHN51liwBgma4RcwhOfgx5lHlVKkFrv70cnAyJNUEGimHDiAggM6HWp0P2sP7SVCj5XFTvDeqeOW45giUHnLbFdVbIeg+bvVtMgErq0faH/z4m06eXhJi1Htj60Lg8dOLH/vnd7Y6gRsv4YUfw0jXIZ3GgZgEC9ClrsOPobeGo8prWkTOUreOBWs/s9w6ak/NUigZnzQLIEQL2u9sLf1iQdkRcHD8mjn7FBJAiqj8Gheg9NDixrQB2Y+RG1JgL7KQP8dmIigJACIQd9x/+Ad//vZTb1nWHUpWrUoEcOqe5Y/8g9uP3dqlS83lqmp/11riLaDdLY5gFFmYTV6SIrXbIqL/fm5IQStYev/C6se74YnijjCHkhgE8fHLC9D5/tbSLywGawU9sh5sfCiFKpARECzutISlpbHPzPEQJcHJe8MZUqy6TF6XVC1siTvffvjwTe1vffbSt/7kohyg1eIOQnjL+9ce+tu3HL89PsJ34lI3hJLG3kByo/H0Cwep9U3Xkxnu4L25AVJ3Yenhhdat4dav7w5eyOtohmslISWFWBDdn1pYeLgTHCkIJXLadJOQTMI5OUZwUnnjAaX+guHARpU7MPpc7w0I9jQFgcdOdX/w79/+wIeOP/4HF85+az0ajN3nTpzuvv8nb37L+4/EqTgeRZXzUTK9iJLHHZ8OlvCYYcjDCwc21hOUPECx9GJRLDzYXvhfD+9+sbf9h/vyjWTkRtRXXLi3Gyx+oL3004vB8eJoS7bUI7k3FF0SCH4JYAFlFUoFGokqr8F+iXVJmT1M21HCAAaqcqUOw+DWew795L9YvXxu9+UnN199Znvzcm/Yl4AQtoKVI+1b7109/eDqzXd1RToN6tC461Z5MP7DoDLsHgCj7BChHmUVP4ZXuqT6XLf3ZmJSt2DphxcWP9gZPD3sPznovzCMdiIhQwhALAQLt7ba97c7D7bGQSQ4ALfBS1KSJiESUqTTKUQLEFOB0kOLuyqlQtUl9UpolFRx9ae71EEobjqzfNOZ5ff9GKCEQS+SEha6gQiEAxvbsFuM9mCzk2PBfkgeaLqkAACB9nqUHkrtYRe1DilYFgvvaXfe3ZJS4hChB6Itwm4dzsBRlLTT3KlDCQK0HplFA0o/X3DNvCRAvtoFy9szMalFAB1tbtUtdd1+jFSXlBnkUaPQGVFcvkkNHvOSakh1qBpKatESol2P1ClKClAFOGwOHy0QLShNeFPNDpQeoiTUH9ZX5OOmXw+AtZu3PtQqd+giRcn4ox3ywERJUmVW/6Ru+F0fXDaWK3XheZnld0iDKg0oeQ1ALNyrPnvyNOv33nAjgdjxlf4z+rXFS+ZqAlnuQK2guaCkijtpSeqzJ/GSFWsC+bCIKkpNuD4pYSniHtB+EqTpvREhqdZf0ixA6Ru3XdFYIHtvWCgJSt8BqAsl9espUnNXThN2Q0FNIOv12YMloqQ/DF2VLtT1xHc9TVJTuzALcFijymVW2xy4KAlEjtKTp+ngx6gcCUTQJUG7pAaUbEDqZlaOup7ivUkjh5T3xk4k+Sl1lS4o77phVcOnB5uxMeUoGdPiWUYjrdBvrtmB0p85VLMfAyt4bwRAXbpkzVI3jRcpSlpMJNN7Ew+p7Ja594Yutdp0p0FqUoYioO5lRYq6lG92oHQgF3xgbSrokgr1oHRx+s5LEqVukoMGoNDtoKLKAQSl0O90+DEOUFT5uNY0G0s8bC6JlwTN4mZDpQUofatVTh8Sdw7ppWgOqPfGwapqlIMm+KwRQOcxiQ/W2Y/hlValPjvYGbMjtTadSLqkXqYopOTUjWnsXO9c8997w+K2Xb03tqvrl9qhi4YZOiGs09SoIUSJBPJfalYXRA56yqR260LYWGu9cJ+D9ybXKgHlFHhvTJSkRfZpiXSUqrpzXpL0rjPvDVC2KwSQiCB5Q/Kcl6zpXVdRNTyZTqPaj4SyYhaxTzzZclXJy1IhygfgDpQNe2/qp8+AWO1Cu76uSCAlhScBbvWjJGjeG0FM10GJInQZEnjD0NX9rsFLXrKK1LQuRqPKyxcqRkKWj8MRKD1keSvOoTAgHGZbP0pOMaM/7saYl0z/TVAOCEJABM0Km8mochYHTeyiYanrYGNRO1VcJBa3pUlQR4SPbS5A2eTTdOMlJz0kM1gSatQl1fVEXtKZjW1el2x3C7ob9d7QDrPFmBr2X+qSLtRnth9jWqSug8BJUVJZ3Jbr9SO/SxobKJv33vjA0I14b+zeHp/Z2BuycpaOFR2HYubq2FASEUAIBMCwI0RwgPGi4UV0w4fUQBc5740gxEtKMHJkSxoPKBvmJf3Ai8JIIGrwkD9S33A/xtEzi8b1kKBk8rt27w1CkhGAAKK71ubihQ+L2aELt3etNt0pkJqjS2beG0Let0JVsOqeDKCcgqhyPqOPRT5uyi0A3kgNfjD6J9+6HC4I2UNIN3/1o4SoctQerAhCsXJLx1q61wepc22KOeiSVneNj5Hy6fbpJAUiJAU1AnuhX/LhYnWTC9DsHBK0E+a4ZRAbRkkuo0+UuqaV014MbnlwBTITSd1vpdt1IkkAitVTi4tHis81VW0G/RjgpdS1s7Ha6WCCEFWOifcmKahBrLRGAsoGKJWK0WeULpiZCZj+B0CstAZSOyerFqkdvDf+5GOIlrjjA4fDBWHWlyShpP5ghRDH7+12j481hnB+0qxPUtfNS8rswDIgxEvqh0aIAIW10G8yeOsVzRDPVfwYNUCSbuhBWjHeer36Rnr0DrykkqIeqet910LATfcvnXxbl4OSkEdJEN3/v71z6bGjuOL4qe5777xnPAPjMcZjJ9gTY4VHIAk4iASEEBK7LAJRVtlFrPkA+Sr5CNlFyioLlF0WUV48FKIoIUosCPaAMcbj6WZxZ2r6PqbrnNNd5VNV5yxQW9TcU7/urn9V/atu3a3Bue+ujFbmC4F8X9LTs85v9aZurt4YhIFTz6gk6lc/x/Vv/9+BV288educ1Rua6pFVsklRlqUA6hAplrbKK69tLj88BBifL9n6+QB1Y5A+XhMvCrPzzOrOM6tz7/G4SimtY1BXb/ylCEBNHEuC/f1uAECs3kDV+Dn44uigX2y4e6qjct5cm6ZeOMv7X8fgrXE3/4kyDYVRh3LoDFx8fn3vta3BoER0PhNWxvhBrDwyfPLn24N5WzJBKjWpR+w4NhQy4+5IjbYyjsaGmO9xV+ZkV7mpC+eBGlOBWvX27W17mr9QR/IAwN0JZBp/4gjqXnpqy5E5ljwpX5in3tgpTPHBb27e/fT+yVrZVIpJlTRgymGxeXnx+bfPL56Z89IKp4aMd5U7y3eiRnyPezw1se/ZsS9JC9R5lJ58SVteiKUCxwthACSVPLp0lp+lJk2Rom45Ex50YZ568+zGhcW///bmx+/duf/l4VT5aZU0Znlr+Oj1tW/9eGv13KjfKoGYuWcajSgk9bHP6F69OdlY5uk8ygC+JFUvfD3gmuQzTg4/ESoJQagZ85eQLeeE2sDFH6w/dHnxxl/v/Oud/f/96XZ1cJzi6Bih8T/Mwtrw0g/XH72+urW3NFqdM6+UT+3bl2R0ugKp8Sp5kgJxxNT4J7/H79xYJckaCQBOofQ64wYxlkozBXf1xvEn8vbSP+CdxqaA1XOjlbPD3etr9z4/vPHnOx+/+8UXn9y7e+ugHJqFjeH6+YVzT61uXVkaLheDhVNnS3FRO6uEHxva60ipub7kcYoC5UvCyWoPZ8Zto9N5lAJVErjvkDFgCqgPkSrZ8CXnqWQ5mMibwi/N+nnWpjCjlXK0Uq6eGz326oa016kjNWN2FSm1b18SZqgrcwgFnH4oZV1BXdtfdKkLx06gcr5XboMvlIEtFd/rGEVhFhaGd+9M+2WzSSZn3PNTLK0ObJWo1NSWI9BIgsn91UjqlNYxkNPhZKh9+5JzyhcGFgx8OVfgxj/5fbJzqHDMuOt6/n6zk6CtkTc+OIFd5RMpRguDtTMj4urNqSm2HlkELrWlCEAd1JdsLU+lFu5LUqkDDDXiVcn51EMwG3NzjVXyOAVi51ANdbXtGFFyhJJxN6nPOPwDXlwabJ9fbk8yua2vLcWlx9cgBmoJKTquY6RBTV7HyGNXOUw2omYKs2iKnek/H58JVB9/9ds5lqwBqvFXxS87ak4WSp65YFF9fAsF+vC2l1YHF6+snVK8hqmN6K4+6tpzm1FQt5cP/Kx5oyRqeQnUHceGQnzJALvK276asQzFpelPqMzRaRcGdybQyVfFn3bcUppQ8u6mLe9jHaPu6SyA4aj45rX1re2F2QzTKuna4Lp7dW37wpKtko8Rd1/U7SkCOPqMlmPLx0sdshGlSm2WTHG1NKvHG8mg+YsOuJ/wtCq5bYpr/Qklw1ygOvqBfcmpd+ji3tre05vlxJfrJlWyNuD6hvLCcvnsK9sLyyXk6uibIKfjSKP2lCJbaox0lHtF8Vh59AWR6TOB2lPUFdSH481DBZgXB8Wao0pYoUzSl5xKsbw2fPH185tnm4PKeubrxm1hCrjyzMbV720WpQFdx2gtnxg11aFjUDOGGtKokSrZ9KBbwM1OMfjRAJaaZwIB5kwg+9M6AGB2i+KFAYz68CgF+pKeHvDuldWfvLU3GI0/jXTSGgDU5y4tvvzGhbWtEfikjt2h47mx0qinTMMAbqy0RsSg7vnZFTB4eWi+X9Smtqs3TpWsGj8CYZaL8tWRuVw6G3eIraHO8nLWMUxhHn926xe/fGLjoVHj92vdY8myhIcvLLz59tVHvrFijO4qb0tBpRa4v5p6/lMXNxaZIjC1bw8akNTDavTWqHi8MAVgvvc9MZYcmPKloXl9gNlNbizJ/M8Nu19SiENXVfVHH372u1//+8O/7H9x66A+fgBHu/zHmY8Ll6U5s71w7bnNV366u7QyyNaXVOq+Ugin9pSiS5Xq/frwVwf1Hw7h9vHmoZn/Ahj70zoGwGwVg5dG5mdDWJz53HnhEEqSkdxRJaU94Nu3Dv7xt/0P/rj/z3f3P71x9/69ekooR0vlzu7yY99ev/KdjUvX1oejIgFqfykYVWq+TpFSBx5qZEsN+3D4zv3qnfvV+4dQmVmhrAEqUxkAWIbiyUH50rB4YYBfzEYJpZyWE/4B37l9/9YnX332/69ufPTl5zfv3fnsoCzNyvrwzMMLZ3eXV88M1zaHo8UCnyIK6t5T5KmSSk1VSejiMxxA/XFVvXdY/f6wer+C/ZPTYY9+NOKsKZ4oyuvDYq80m7Sje91CKdBSCZBilrqu6rqG8ecZA8aAKUwAN1amV8WuksDXSal7rFLgGzuHuga4D/XdGv5T1/+t4GZdl3W1WcNuUewUMIBy6F66mQ2HUFZVJe0dktPThnyHZFL7TiGHOuSNlVOlPKnnhvvgXmc9mpKHGSIJXL3hWSq2PIaakUIaNTSW3ZFGUjLUvl8naVUKkKKjdIRUSeh+HiWVNoEHDEH20lNH3IFvbJ7U/nxJWyUhehHSl0R2ug9QJaEXoRxfC7FUAqdQah9VAqm7ynuvEnjbEWwjMDV1agJiqNuDL5Tx7iq3EcCXpI7CQKnFdD/Z7qW314zZlbQ1K8BRHB4etteEKZTU31ylthyxoypbHulLUucjSi2NGtB6kYYvaa+zcmOdZchCOdttSjAXwhjP0iwVgb5kMi0nwOtky0fqS6ZH3RI9CCW+HpE+YNDVmyDrGFlR2043Aeo0hhrtQRNKgeaCQK9K3dg8qfGjJHsdKTWvh7PXMVIThDLkOySnpw1ALXDPbUdHP09qUgo51L7dWBC5ZkWlRgllR3MhUq+KQU1tOQKpIeNd5bZ8VtS+GxF1MVAgNWCEUr65EK8vKZCaOiJOz5cMQB2pXnQfasTYiMaBFUr7ub3XQ+ADnkohZ7KQEjVE+zopNWOoESm1DYdQqqOvjj6mSgxqId1PgF3l6VFL8yUBvau8WR6vkoD0KBmTBR8uD4Tqc2x5DHWSvqSzfGLUkPGucmf5JKlJKgkYoYzXXOBZKhm6sTYFkjqZlhPYoXvgVQqQIg3q2cAKZb/1EPiAQXeV50rtyZdMoNOl+pJpUM8Nh1AKMRcEujZKrR50+5/Y60ipeT2cvY6U+rRwZ2qPPB39PKkZsyqBO40TOx3Hk4QJ7HQDULdEp/MoGSNzaTNuRuOnthyB1MBavUnDl7TlMeDJUPtuRNKqxEjRHnyhFIjKU0nfDp00aqCPiNPzJQNQI+cZsb9OyVC3l2EKpUzULqs3nhx9gdQB1jHypJ56nXqvUmBqXiPqvUrBXqf+D+5VRz9PaoYbGyk1b5RESiGfWkIjalKDn13lUylOC7JQUluOzPEF9YR2asuRSc1w9EktJxnqLq+TUrdUKTB1XyoJVKEUO2zGp5iVPB8ppFE3U+RJ7SmFwCoFSJGML9lM0V6YIJTyURmjJE9eFalK6a1jCKT250vaKkWqF1Rfsj4OiHlXOTUFVigTQAWRlkoC1JCEL5mGG9tMkc8vzVKpGSlQQqkth9Fy0nD0MdQCdxrnuas8MWpgSYezPOPGAkYo01i9aZbHNH7qO5QMdRoOnS3v440VTu0phVhq3ynG4RDKBFDztFSA3sOl50t6UskEfEmlJqkkOIUyAVTqM07jAYdZx7Ddj1L3mELy6g2IcdJCqiQgPco8fck8qfHjBXut1JgUQqh58wBSCpnUXVQS+jqPUmaHEHIdQya1b0dfDjVVwrKlZr9OWVHPhkMoIx02MySPkUIaNWS8juH7dZJWpQAp1JdshkMoI0UN4Esy5i8h36E8qf35krZKkepFF18S2ekKpO5LJaHjeZQyUZsphFgqiVGDGIfONzWI9CW7UHua3gqk7lElofvBvfZayN1UR19Px2lJQaXWXeVCOl0GdY8qCWyhFDuqsuWRviR1PpIGdRoOnb320XKioM7HjbXX/qj7P49S4N3M1lKhjoibKdKg1nWMvlIodUuQhVIgKuiu8iDrGFlR2043AWrqUANyakRehJJhLgj0qtJw9JVaPeiWFIwejpRCJnWXFO1BPriXVA+Zd5PacgTuue3o6EdKzfAlqXqRBjX7dcqTGhDSgRVKgcNmRuNnpJBGDdnvKs+T2lOKqfIZ+pJIapRQCkQF9SVz3VUegDpbvcihETXdWCQ1YIRSIOpUCiGWSmLUIMah800NIn1J36s3MCmUkVJ3HGBhyo8DdXCvvRaCqo6+ntDekoJKLXxXuf7SLCaFJ2obDqGU7PIimwH1HZLZDWZODRnvKneWT5Lax4ybWqVmoDxKIXeTYS6kMVnQdQwhjr5S50M9FajzKCWgQpDVG+r8Jb11DIHUVIcOT227nwSodajRUj6EUEpABZGWSgLUoG5stNS8Hs5ex0vdZVJP8iWb4UgTqbet6xhIauHrGIx5hoTup2Nj9uFLglJ3UEnoeMwaiDQXqC1H4GQBWKs3afiStjwGPBlq341IWpUCpOg+3W5G1/MoE/AlpT1goI+I0/MlA1Aj5xmxv045U5Pc2PbgC2XguylnsiAthcAqyaRuSkYC1IyhRqTUHQdYyCq1F2MKpUCHTtcx8OMFex0pNW+UREohn1pCI2pSQ7S7ypvUpwVHKEO+QzxfMtJukOFtk1pOMtRpOHT22vc6hlhq39JBpW4JslCGt1R8pJDZckiWSmLUnlJMlc/KobPllRpTpfYgn0cZ0lzA0Oo6RhrU/nxJWyVPN1aaL1kfB8RMzVPJLtTthQlCKdC1CWCpJEANSfiSebqxjNWbBKgDWBlUavcn8j5XfstJw9HHUAvcaZznrvLEqAEtSaTyMocaqBGlQHOB+g4JnCyA7irHTZESo/aUQiy1b+nw7UGPA3UepXBzIcYHDPQRcXq+pCeVZMwzYn+dlNqTdNhwCGUaqzfSHjAjBU8lbfej1D2mkLx6A2J8ycDS4aNKzXAIpW9UXcfQdQxMlfKh5s0DSClkUguUjmagPEqZ3nak3WBIR18ONcPRz5Oa/TopdXuVuqgkIM+jlGAuMFIIVMls1zF8e1XSqhQghfqSnqjnhkMo4/UlGfOXkO9QntT+fElbpUj1oosviex0BVLzVNIr9WnhEErfd1POVq+Q75BSY8rjVc9ep0HtY3orkDrApL4vlYSO51F2dOh0V3lLCqWW4Oh3pPbtxoLUTtdZPrB0dFRJ6CKU3R06TArqfETaZAF0V3mW1J5SiKX2PeMOUKX2MkyhFGguCHzAQB8R50nNe53wnw9J3Fil9krdPkrlCCXjblJpE3jAjBS6eoOntp1uAtTUoQaI9CXjXfhtzgNOC7JQyjQXBHrbur9aqVtSMHo4UgqZ1NKkA6mSQBXK8O8QpuUI3HOru8qVuscUSh2Aur0wQSgDmAuMFAInC1PrGD5cG5nUdjqcIbWnFFPl1Zd8UFXCCqVwc0HIAwb6XDI9XzIAtYSWw0jB8yVt+UwaUdONlUONEsqOd1OIpRI4hcwNbjFSg0hfsgu1p+ltGo2o2T0IqRJghDKAL5mno9+RWkj3oye0+3ZjQUynK/yXZj11uuNwH7PW0aFzlqe+QzK7wcypwY+jHwW1j7mnUguhtuE+uBf/uTLNBV3HiPSGkpiPAAABpklEQVTGpuFLKnW81M1AeZQMc8GTSjJcnpDvUJ7U1HUMPLXtfhKg1qFGS/kA0tFFJQEjlPGaCwIdOqXGjxfsdaTUvB7OXsdL3WVSL8SDng33MWtCWo7APbe6jpHAOoYnCRPY6eZJDUT/8LRwH9zbXoDR+KktR+BkAVirN2n4krY8BjwZat9zT2lVCpBCvi/ZjE7nUYLuKs/VlwxALaTl5KkXIX1JZKf7AFUSOgpls+pyJgshU+RJ7Xv1BsQ4dL5Xb0Dk/uoAKQRStwdfKHUdQ9cxWlJ0oRbS/SR2Qjtks6ucR93/eZQwubTC8CUj7QYZviSp5Qinhox3lTvLJ0ntVSVlUp8WnPMopySv9/mI2HeIZKkk03LUoVPqXlLIp26JHoQSXw9dx2ipknBq374ko9MVSI3Xi9ipeSrpuxF5UkmgCqVAc0GgV6VuLH68YK8jpeb1cPY6Xuou01uBHrSzvEEKqoaGhka20XXVXENDQyP5UKHU0NDQcIQKpYaGhoYjVCg1NDQ0HKFCqaGhoeEIFUoNDQ0NR6hQamhoaDhChVJDQ0PDEV8DZlWE5bCeMywAAAAASUVORK5CYII=;" vertex="1" parent="1">
          <mxGeometry x="143" y="41" width="170.39" height="170" as="geometry" />
        </mxCell>
        <mxCell id="dYQdGJojqVXah9hVao-H-3" value="" style="shape=image;verticalLabelPosition=bottom;labelBackgroundColor=default;verticalAlign=top;aspect=fixed;imageAspect=0;image=data:image/png,iVBORw0KGgoAAAANSUhEUgAAAScAAACXCAIAAADYhQrXAAAAAXNSR0IArs4c6QAADWVJREFUeJzt3X1MG2UcB/B7ri2lQQitlCBQxEHoyNwmbnQgy1TGJltUCDqXbOiizulAXYJ/mCiGpInL/nBq3Oa2iICIm2bTRGBkm2zKyHRuE5PqsiwwIYAyBzreX9uefzSWvlxfud7Tlu/nj4a019/z69Fvn7teeyUcxzEAICKWdgMAiw5SByA2pA5AbEgdgNiQOgCxIXUAYkPqAMSG1AGIDakDEBtSBy5xHPfjjz9WVFRotVqpVEoIkclkWVlZer3+5s2btLsLYQSfCANnHMf9888/e/bsOX78OO8zhGVZvV7/+uuvR0dHi99eqEPqgEd/f39WVtbQ0JD7xTIyMhobG7VarThdhQ1sYYKj6enpvLw8j5FjGKazszMzM1Ov14vQVTjBXAeOysrKDh8+7P3yhJAlS5b89NNParU6cF2FE8x1YGdwcLC+vt6nu3Acd/PmzdTU1L17987NzQWosXCC1IGdEydOTE5O+nHHycnJt99+e8OGDdevX8cGlHtIHczjOO7y5csLyUxbW5tOpzt8+DAmPTeQOphHCBkeHl5gkfHx8fLy8g0bNnR3dwvSVfhB6sCOQqEQpE5bW1tGRkZTU5PRaBSkYDhB6sBOcnKyUKWMRuOTTz65atWqiYkJoWqGB6QO7KxZs0bYggaDITExsaGhQdiyIQ3H68DOrVu3NBqN4JuFEomksLCwoaEhNjZW2MqhCHMd2ElISFixYoXgZU0m06lTp5YuXXrs2DG80CN14Cg/Pz9Alf/+++/S0tLnnntucHAwQEOEBKQOHG3atClwxTmOa2hoSE9Pb2lpMZvNgRsomGG/DhzNzMxoNJpAT0eEkO3btx86dCgmJiagAwUhzHXgSC6XFxUVBXoUy6Sn0WiuXr0a6LGCDVIHPDZv3izOQKOjo3l5eU899ZTJZBJnxGCA1AGP7OxslhXpuTE7O/vNN9+kp6dfuHBBnBGpQ+qAR1JS0kMPPSTmiD09Pfn5+a+99trY2JiY41KB1AEPQsiuXbtEHtRkMh08eDA3NzfsJz2kDvjl5OQQQsQf99q1a+vXr6+srPTva34hAUcOgN/s7Gx8fPzIyAitBu65556LFy+mpqZSCX9AYa4DfhEREXv27KHYwMDAQFpa2t69e8NvYsBcBy719fWlpqZS/wSJVqttbm5OT0+n24aAMNeBS3FxcTKZjHYXzI0bNx588MGqqirajQgGqQOXFArFunXraHfBMAwzNjam1+vXrl1748YN2r0IAKkDdyorK0U7XO7RxYsXly9f/tFHH4X6qZCwXwceKJXKhZ/CSFjr1q2rqalJS0uj3YifguVlDIJWamoq7RYcXbhwYenSpTU1NSE66SF14MG2bdtot8DDaDS++OKLubm5MzMztHvxGVIHHuzcuVMul9Pugt8vv/ySkJBQXV1NuxHfIHXgQWxsbGZmJu0uXBoeHt61a1dBQcHt27dp9+ItpA48IISI/P0DX3Ecd/78+fvvv/+zzz4LiXcHkTrw7Nlnnw3yD0NyHDc4OPj888+Xlpb29fUFefZw5AC8cu+99/b29tLuwitqtbq+vr6wsJB2Iy5hrgOvPProo7Rb8Nbg4OCmTZu2bNlC8QsT7iF14JVgnjp4nTx5Mi4u7tdff6XdCA+kDryycePGyMhI2l34xmg06nS67du3T09P0+7FDlIHXlGpVAUFBbS78JnRaDx27NiyZcu+++472r3M8/BuSnJyMsdxhBCO4ziOY1nWurzlSts/HK53N+r/b4hZizsvYC3OMIzZbLYObbmLw0C2vdlez9ubHw/HOqj7Pn19OIQQs9ns8HBsr3TomXdl2q4Q5zu679lNZWs16wKjo6Pj4+O8PQS/iIiInTt3vv/++0FxxJ9zi3Z3AEJKTU1tb283m83un/aBhtTBolNVVTUyMiJOwPhj5eFmgHCk0Wh+++03WpMeUgeLFCHkjTfeECdmjrHycDNA+CKEZGRk/Pnnn+KEbT5WHm4GCHcKheKtt96am5sTJ3IcUgdgkZOTYzAYkDoAUSkUiv37909PTyN1AKLKzc3t7OxE6gBEJZfL6+rqArenh9QB8EtLSwvQwXSkDsClmJiY6upqpA5AVISQjRs3DgwMIHUAooqPj//kk0+QOgBREUK2bNkiyKSH1AH4IDIysrGxcYFvbyJ1AD7bunXr8PAwUgcgqqioqO+//x6pAxCVVCotLi42mUxIHYCoUlJSWltbfcoeUgcggJdfftn7PT2kDkAYGRkZra2tSB2AqCxnhfD46U2kDkBgiYmJXV1dbmKFcz8DCGxqaopl3SYLcx2AUAghZWVl2MIEEElycvK5c+fcBwqpAxAGIaS8vHxoaMibyCF1AAuVlJTU1NTk02mkkToAP8lksqeffnp2dtb7vCF1AP5TqVTNzc2+5g2pA/BTUVHR1NSUf5FD6gB8I5PJzpw5g2+1AgSc5RdwS0pKbt26tZC8IXUA3lKr1bW1tQvPG1IH4JXNmzf39PQIFTmkDsAdpVJ59OhRAfOG1AG4RAhZtmzZnTt3BI8cUgfAIyIioq6uLnC/Wo7UAcwjhKxevbq/v9+PcxAhdQA+k8vlH3744czMTODyhtQBzFu7dq3BYAjcViVSBzBPoVC88847fnyI2W9IHSxehJAHHnigu7s7oHtxPLHycDNAmJLL5W+++aY4MXOMlYebAcJRQkJCV1eXyFPcfKw83AwQdvR6/cTEhDgB44+Vh5sBwkhKSsrly5fFeaPSDan7LtVqNSHEEj/bP2yXcbjVluVK50vn5Z2Le1zMer2b+tZLS0HeJr2v5tCec1mHOraPwvZBOQ/kXNnVynSu7GoN27axwPVpuZycnJyYmHBeeyEhIiLi1VdffffddyMjI2n3wvA/C62MRiNj8wzzhsNznWEYlmXNZrPDAsz/zwOWZS1/WC4lEontwg53sVTmOM5yL8v1hBCz2WytaTkBqO1irqrNr4X/yxJCHLq1XcD2qWkd2noNy7Imk8nhSt6atuFx9ULg0DBjkx/rY3du3roGbFep8//OYQ1wHGdZ7bzr01qhqKiopaXFfavBSavVHjp0KD8/3/uncUB5/pcDMAwzNDSUnJw8MzNDuxHfSKXSHTt2HDhwQKFQ0O5lnoctTACL1tbWkIucUqk8ffq0Tqej3Ygj/M4BeOXMmTO0W/CWZTOyuLh4YGAgCCPHYAsTvGE2m++7777e3l7ajXjl7rvv/vbbb/Py8mg34hLmOvCso6Ojr6+Pdhde2bFjx++//x7MkWOwXwfe+Pzzz4N/m0itVh85cqS4uNjDr1gFAaQOPGtvb6fdgjssy5aUlHz88cdqtZp2L17Bfh14MDY2Fh8fPz09TbsRfmq1+oMPPti2bVuQHIvzBuY68ODTTz8NzmMGLMs+8sgjjY2NUVFRtHvxTbBvAQN19fX1QbhBJJFITpw4cfbs2ZCLHIPUgXtms7mnp4d2F3ZYll2/fn1vb29JSYlEIqHdjj+whQnudHR0jIyM0O5inlwur66u3rp1q0wmo92L/5A6cInjOL1e7/xZcFoKCgqOHDmSlpZGu5GFwnuY4NLU1FRcXNzk5CTtRhilUllZWVlRUUG7EWFgrgOX7ty5EwwHDHQ63RdffBEGU5wV3k0BfhzHHT9+nO7mpVwuf++99y5dupSenh5Ch+M8whYm8DMajUlJSbdv36bVQGJi4vXr12NiYmg1EDiY64AHx3H9/f20IieVSvft29fd3R2WkWOwXwe8CCFXr16lMnRWVlZtbe3KlSupjC4OzHXAr66uTuRdKalUWlVV1d7eHt6RY7BfB7yGhoYSExPn5uZEG3H58uW1tbWrVq0SbUSKMNcBjytXrogWOblc/sorr3R0dCySyDHYrwNeZ8+eFWeglJSU06dPa7Xa4P8qqoAW0UMF7508eTKg9S0Z27179x9//JGZmbmoIsdgrgNnV65c+euvvwJXn2VZlUrV3Nys0+nC6di39xbXawx4xHFcS0tL4D6SwrLs7t27Ozs716xZszgjx2CuAweEkPPnzweoeEpKytGjRx977LFFmzcLHDkAO6Ojo0lJSePj48KWlUgkpaWlBw4ciI6OFrZyKMJcB3Z+/vlnwSOn0WgOHjz4xBNPLPIpzgqpAzttbW0CVmNZtqCg4Ouvv46KikLkrJA6sNPd3S1UKblc/sMPPyzmd01cwXuYMM9sNlt+sXDhCgsL+/r6cnJyEDlnSB3MY1l24Se6UyqVX3311alTp0LlTMziQ+rATnZ29kLuXlJS0tHR8cwzzyy2j5v4BEcOwM6///67ZMkSP87GFx0dvX///hdeeCFEz1EpJrwggR2VSlVeXu7TzhjLsg8//HBvb+9LL72EyHkDcx04mpubW716tcFg8GbhqKioffv2lZWVYZPSe0gd8BgeHl6xYoX7X4okhKxcufLcuXMqlUq0xsIDXp+AR2xs7LVr1yoqKlxtaspkspqamkuXLiFyfsBcBy6Zzeaurq6mpqYvv/zSYDDMzs7edddd2dnZpaWljz/+eHx8PO0GQxVSByA2bGECiA2pAxAbUgcgNqQOQGxIHYDYkDoAsSF1AGJD6gDE9h89zVItgvOnpAAAAABJRU5ErkJggg==;imageBackground=none;fillStyle=solid;" vertex="1" parent="1">
          <mxGeometry x="333" y="84.5" width="138.71" height="71" as="geometry" />
        </mxCell>
        <mxCell id="dYQdGJojqVXah9hVao-H-4" value="" style="shape=image;verticalLabelPosition=bottom;labelBackgroundColor=default;verticalAlign=top;aspect=fixed;imageAspect=0;image=data:image/png,iVBORw0KGgoAAAANSUhEUgAAAWAAAAFgCAIAAAAKAzQbAAAAAXNSR0IArs4c6QAAIABJREFUeJzt3WdcFFffN/CtLC6wNJUAUjVGIXa9QRIUJXYU1CuiGEUvMcSGNUaTXLFEE2MSBRUbKFGjEsWIXaMSwtpQoxGxBPWyUWSRugjLtnle8Hxye6tzdgd2Zxb9fV8yZ2b+kMzPMzPnnOFTFMUDAHgVAdcFAIDlQkAAAC0EBADQQkAAAC0EBADQQkAAAC0EBADQQkAAAC0EBADQQkAAAC0EBADQQkAAAC0EBADQQkAAAC0EBADQQkAAAC0EBADQQkAAAC0EBADQQkAAAC0EBADQQkAAAC0EBADQQkAAAC0EBADQQkAAAC0EBADQQkAAAC0EBADQQkAAAC0EBADQQkAAAC0EBADQQkAAAC0EBADQQkAAAC0EBADQQkAAAC0EBADQQkAAAC0EBADQQkAAAC0EBADQQkAAAC0EBADQEpnjoFqtNiMj48KFCzdv3lQoFDU1NRRFmeNEAG8sPp8vlUpdXFz8/PwCAwP79OkjEpnhcqZMR6FQ7N+/PzIyslmzZqYvFADoSaXS0aNHp6enKxQKE17UpgkIrVa7adMmT09PoVDI9R8K4M0lFAq9vLySk5O1Wq1JLu3GBoRer//rr7/CwsIEAjzOALAIQqFw6NChFy9e1Ov1HAdERkaGo6Mj138QAHiRo6Pj77//zllAaLXaLVu2yGQyrv8OAPBqtra2jbzdaHhAZGZmSqVSrv8CAEAilUr/+OMPtgPiwoULTk5OXP/uAGCYs7PzxYsX2QsIlUrVq1cvrn9rADBWSEiISqViKSA2bdpkliEZAGAeIpEoKSmpARc7n2I4xlGhUPj4+NTU1BhsaW1t7erqKpPJrKys+Hx+Q381AHgFiqLUanVVVVVRUZFKpTLYXiqVPnjwoEWLFozOwrgjsGvXLoPpwOfzhwwZ8uWXX3p5eTk4OEgkEgQEgGlRFFVXV1dRUfHgwYNly5YdPXqU/I99TU3N7t274+LiGJ+Gkf79+5MP6ODg8M0332g0mgb0ZwCgATQazfLlyx0cHMjX5sCBA5kemdkthl6vd3BwUCqVhDarV6+eNWuW8ccEAJNYs2bNzJkzCQ3s7OwqKioYDXpmNj762LFj5HQYOHDg9OnTGR0TAExi6tSp/fr1IzRQKpUnTpxgdExmAXH06FHCVhsbm23btuEFBwAnRCLR9u3bycMXjx07xuiYzAIiOzubsLVTp04v3wVVVFQsX768a9euUqmU/39ZW1t36tRp0aJFCoWC7pg3b96cPn16mzZt6l+FPM/e3j44ODgpKUmn071yX4qiTp06NWrUKBcXF6FQ+Py+QqGwRYsWI0aMMPhoB6AJcXJy6tixI6EB+RJ+BUZPLFxcXAiHGj16tE6ne769Wq3u3r27wRo6duyoVqtfPl15ebm7u7vB3UeMGPHK0ea//PKLMbdbGzduZPRHALBYOp0uMjKS8H+7q6srowMy60FUVlYSttra2j5/Qep0uk8//fTy5csGD5uTkzN58mSNRvP8D6urq3v37l1QUGBw90OHDv3yyy8v/FChUMydO1ev1xvcffHixcXFxQabAVg+gUBgZ2dHaFBeXs7sgIxa03Xm672wWkxVVdWRI0eMPPLJkycLCwuf/0lmZmZOTo4x+2o0mpSUlBd+GB8fn5+fb8zuT548+eabb4ysE8DCkRdtIl/CLzPjKi+1tbVGXqI8Hu/p06dlZWXP/+T27dvGn+vSpUsv/OT48ePG775//37jGwO8OcwYEBRFGdPD/6cx9X8fFhq/L+9VuajVao3f/YW7GwCoZ8aAqJ+LYWRjJyenF96AtGnTxvhzde7c+YWf9OnTx/jdBw0aZHxjgDeHGQPC3t7e+Ks0ICDghRcWffv29fDwMGZfoVA4bty4F344b948I9fCs7e3X7RokZF1ArxRzBgQIpFoxYoV/v7+Blu2bdt248aNEonk+R86ODicOHGiZcuWBncPDQ2Niop64YceHh7Lly835jXnZ5995uXlZbAZwBvIvEtRu7i4ZGRkTJgwwdvb28rK6oWtYrHY09NzzJgxv/322ytvRtq3b79///7+/fvXj3R6YWuzZs3eeeedhQsXHj161NbW9uXdY2NjU1JSAgMD7e3tX0gKPp9vZ2fXo0ePzZs3f/bZZ437LQFeW2YfFt2yZcukpKSqqqra2toXnjsKBAJra2t7e3vC6OygoKBDhw5VVlbW1dW98BRTKBRKpVKZTEbXTRAIBOPHjx85cqRSqawfSfXPJj6fLxKJbG1tX5ksAFCPjXkTIpGoMQtYWllZMV3l4nk2NjY2NjYN3h3gTYav3QAALQQEANBCQAAALVM+g8jKyvrkk09MeEAAYCorK8uER2O25JyVlRVGJQM0XWKxWK1WG98etxgAQAsBAQC0EBAAQAsBAQC0EBAAQAsBAQC0EBAAQAsBAQC0TDmSUiAQkFfUBQBz0+l0jNZzJTNlQEyePHnjxo0mPCAAMPXJJ59s2rTJVEfDLQYA0EJAAAAtBAQA0EJAAAAtBAQA0EJAAAAtBAQA0EJAAAAtBAQA0EJAAAAtBAQA0EJAAAAtBAQA0EJAAAAtBAQA0EJAAAAtBAQA0EJAAAAtBAQA0EJAAAAtBAQA0EJAAAAtBAQA0EJAAAAtBAQA0EJAAAAtBAQA0EJAAAAtBAQA0EJAAAAtEdcFAEsoiqqqqiooKCgoKMjPz3/8+HF+fn5+fn5hYWFlZaVKpXr27Fltba1er7e2thaLxTKZrHnz5k5OTq1atfL29vby8nJ3d3d1dXV3d3d0dOTz+Vz/QsAGBMTrr6ysbOfOnampqXl5eXV1dXV1dRqNhqIouvY1NTU8Hq+ysvLx48f//JDP54vFYisrK2traz8/v4iIiMjISDc3NzZ+AeAOAuL1VFpaKpfLT506de7cuZycHJ1O18gDUhSlVqvVanV1dXVWVlZWVtbcuXM7dOgQHBzcs2fP4OBgT09Pk1QOFgUB8bq5c+fOV199tXfvXr1eT+gmNB5FUTk5OTk5OYmJiQKBYNiwYatWrfLx8THfGYF9eEj5migpKVmzZk2vXr3at2+fmpqq0+nMmg4v0Ov16enpbdu27dWr1/fff19YWMjaqcGsEBBNG0VRZWVl//nPf1q1ajVz5ky5XN74u4kG02q1crl8/vz5vr6+ixcvLi0t1ev1XBUDJoGAaMKePn36xRdf9OzZc/ny5Wq1muty/lddXd3SpUu7dOny2WefPX36lOtyoOEQEE1SdXV1cnKyl5fXt99+m5eXx+bdhJEoinr8+PEPP/zg4+OzY8eO6upqriuChkBAND1ZWVkffPDB1KlT699HWrjq6upJkyb17dv35MmTXNcCjCEgmpKSkpKFCxf269cvOztbo9FwXY6xNBrNpUuXhg4dunjx4pKSEq7LAQbwmrPJuHLlysSJE69fv26SGwqJRNK5c+cOHTq4ubm1atXKzc3N2tpaKBRKpdKampqysrLS0lKFQpGXl3fr1q3bt28rlcpGnrH+wUR6enpKSkqXLl0a/ysACxAQTUBNTU1KSsrChQsbfJUKBAIPDw8fH5/27dsHBwd369atTZs2AoGx/UeKou7cuZOdnZ2dnX3z5s07d+4UFBQ0IKcoirp27Vr9q9CJEydKJBKmRwC2UUyIxWLCoWJjYxkdDYyhVCojIiJEogZGebNmzaKiouRyeUlJSW1tbePrUalUCoUiKytrwoQJ1tbWDatKLBaPGjVKqVQ2vh54QWxsLPkvz+hoCAiLdvPmzf79+zdgZpStre2QIUOSkpJKSkrMV15RUdGGDRuGDh1qY2PDtEI+nz9gwIC///7bfOW9mRAQb4r79+83bILDxIkTKysrtVotO3VqtdrS0tIxY8Y0oFRfX9/8/Hx26nxDmDYg8BbDQp06dSooKOjRo0fG7+Ls7DxnzpycnJytW7fKZDKhUGi+8p4nFAqdnJx27dp1/fr12bNnOzg4GL/vf//73549e2ZmZpqvPGgURnGCHgQL9Hp9Xl6es7Oz8f8RRSJR7969i4uLua6doijqyZMnISEhjB6aNG/e/O7du1wX/ppAD+I1d/z48YCAgNLSUiPbd+jQIS0t7eTJky1btjRrYUZycXE5efLk3r17/fz8jNzl6dOngYGB6EdYIASEZSkoKJg8eXJ5ebkxjSUSyaRJk65cuRIeHk7u3LFMJBJFRERcu3YtJibGyHeZT58+HT9+fEFBgblrA0YQEBbk9u3bwcHBRl4kPj4++/fvT0xMbPAbUHMTiUSJiYlpaWlGPmp9/Phx796979y5Y+7CwHgICEuhVCqnTJly//59gy0FAsG777575MiRQYMGWfhYIysrq7CwsOPHj3fs2NGYcVn37t2Li4t79uwZC7WBMRAQFkGlUkVHRxt5Ex4dHS2Xy9u3b2/uqkylffv2crl87NixxjQ+ceLEpEmT6urqzF0VGAMBYRG2bdt2+PBhg80kEsnkyZPXr1/P6FWiJZDJZElJSVOnTjU4+JKiqF9//fWnn35ipzAgQ0Bw7/z58/PmzTNmduacOXMSExMbPMCZWxKJJCEh4dNPPzXYUqPRfPrpp1euXGGhKiBDQHBMoVDExMQYXE9FIpF88cUXy5Yts6i3FUyJRKJFixYtWLDAYMYplcpJkyZhNSrOISA4tn79+lu3bhlsNn78+EWLFhk//9JiCYXCpUuXxsTEGGx57dq1xMREFkoCgib/P1yTlpGRsWLFCoo4b1ogEERHRyckJDTpvsPzxGLxDz/8MG7cOHLeURS1YsWKP/74g7XC4GUICM5UVVXNnz/f4ON6Pz+/+Pj4Zs2asVMVO+qfRxgcaqlSqebPn4/1LDmEgODM/v37c3JyyG18fHz27NnT5N5ZGMPR0XHfvn0GP7Rz9erV9PR0dkqClyEguFFWVhYXF0d+cyGRSBITE5vQeAem2rZtu3r1aisrK0IbjUYzZcoU42emgGkhIDig1+tXrFhRVVVFbvbRRx/17duXnZK4MnDgwOjoaHKb6urqlStXkp/UgJkgIDhQXl6emppKbtOhQ4eNGzeaaiR1RUXF9u3be/To4eDg8M4773z++ecPHz60hEtOIpFs2LDh3XffJTfbu3evkRPYwLQQEBzYvHlzfn4+oYFIJFq2bJmpZmGVlJSEh4dHR0dfvny5srIyLy/v22+/DQoKio+PN8nxG0koFC5atIi8vM2DBw/wypMbjFaPwIIxjVdcXCyVSsn/UXr37q1Wq01yOrVaPWjQILoTDR48ODc31yQnamSRoaGh5L+JRCIpLCzkutImAAvGNG07d+4kfxHL2dl5z549phr1cPr06WPHjtFtPXr0aN++fX/88UduP8MjFot3797t6OhIaFNXV7dr1y7WSoJ6CAi2/frrr+QG0dHRJlwb6vz58+QGCoVi/vz5o0aNunr1Kocf427RosW4cePIbQ4ePMhOMfAPBASrioqKsrOzyW0mTJhgwjMqFAqDbfR6fXp6emho6IYNG0x4aqY+/vhjcoNz5849ePCAnWKgHgKCVQsWLCB35idOnNihQwcTnpEy+lVFeXn59OnTw8LC/vrrLxMWYDx/f3/yK0+tVjtv3jzW6gEeAoJNRUVFO3fuJDSwtbVdvXo1a/W80pEjR/7nf/4nPj6ek9uNVatWkZ/g7t+/v6ioiLV6AAHBHrlcTr7qQkJCbG1tWauHTv1yDMOHD7906RLLp7a3tyePDaMo6uzZs6zVAwgI9pw/f57c4Q8PD2ftazdkWq324MGDISEhO3fuZPMFh1AoDA8PJzSgKEoul7NWDyAg2EP+P9va2joiIoK1YoxRU1Pz0UcfRURE5ObmsnbSsLAw8uyMrKws1ooBBARLSkpKrl69SmgwcuTI5s2bs1aP8Y4ePdq1a9fk5OTa2loWTvfWW2+NHDmS0ODatWtPnjxhoRLgISBYs2PHDsIDCIFAQB4Axy2NRjN16tTw8HB2uhIzZswgrCVDUdTevXtZKAN4CAjWHDlyhLDVw8PDwqd1azSakydPBgUFbdmyxdwruLRu3drNzY3Q4NdffzX+9S00BgKCDVVVVdevXyc08PHxsYT3FwbVf91n6NChf//9t/nOIpPJfH19CQ1yc3MrKirMVwD8AwHBhkePHpFv4Nu3b8/JYvYikSg+Pr5Vq1bG76LRaDIzM997770tW7ZUVlaaoypra+tOnToRGqhUqsLCQnOcGl6AgGBDfn4+ee3J4OBg1op5Hp/Pj4uLO3PmzIABAxjtWFpaGhsbO3ToUGOGcjdA9+7dCVvVajUCgh0ICDaUlJRotVpCg27durFWzAv4fL6Xl9fBgwcTEhIYdSV0Op1cLn/77bfXrVtn8i/lde3albBVo9EgINiBgGADefkmiUTSunVrNut5mZWV1YwZM/7888/+/fsz2rGqqmrWrFndunV7+PChCevx8/OzsbGh20pR1KNHj0x4OqCDgGAD+ZvdnTt3toQBlHw+v2XLlvv371+zZo23t7fxO+p0uhs3bgQFBa1Zs0apVJqkGIFA4O/vT2hgzGfQofEQEGwg/+tqcEVGNkml0hkzZpw7d65Lly58Pt/4HQsLC2fOnNmvX7+ysjKTVNKmTRvCVvKafWAqCAg2kK8ZRnf+7HB1db1w4UJiYiJ5laeXZWdn+/v7r1u3rvGTQcm3XVgInx0ICDaQV7gnDwriipWV1ZQpUx4+fBgSEsLoDujJkyczZsyYM2cO+bmsQeTbHAQEOxAQbCCPF7DMgKhnZ2d38ODBpKQkV1dXRjtu2bLF4NpZZPb29oStpnrYAWQICDaQexAW/t1NOzu7iRMnyuXy4OBg8jzL51VXVyckJDTmvIS3GDwez+QvVuGVEBBsIE8caBKf7W7duvXx48c3bdpk/IdCf//998ackTz2HAHBDgQEG8j38E0iINhHmNDJ4/EYvWGBBjPNt5uAjPyNrCbxj+G9e/cmTpyYnZ2tVquN3KWRHxYlz14x+PEhMAn0INhADghTDRwwE6VSmZKSEhwcLJfLjU8HW1vbmTNnNua8z549I2y18Ac3rw30INggk8kI05MtOSCUSuWwYcPkcrlOp2O0Y0xMTEBAQGNOXVxcTNiKHgQ70INgA/lLWeQrgStqtXrDhg1eXl6ZmZmM0uGtt95au3btjz/+2Mjx4+R15WQyWWMODkZCD4IN5IDIy8tjrRIjFRUVDRky5K+//mK6cFNAQMDRo0ednJwaX8Pdu3cJWy1w+OlrCT0INpAD4tatW6xVYlBNTc3atWuDgoKuXr3KKB3c3NwSEhJOnjxpknTg8XjkRavc3d1NchYgQw+CDR4eHoStt2/fpiiK8/d2FEWVlJSMGzfut99+Y7SjUChs167dkSNHvLy8TFWMXq8nL9KHHgQ70INgw9tvv024/pVK5Z07d9is52VqtXrt2rXdunVjmg4ymSw+Pv7PP/80YTrweLy8vLyamhq6rXw+HwHBDvQg2ODm5iYWiwnvCLOzs9u2bctmSf+oX3wlNjb2xIkTjHYUCoVBQUFpaWnkG6iGIX9DRCwWIyDYgR4EG1xcXMizGBo5r6nBKIpas2bN+++/zzQdnJ2dN23adOjQIXOkA4/HO3PmDGGrRCJBQLADPQg2uLu7W1tbEz4ncfPmzbq6OolEwmZVPB5Pq9XOmjWL0S5isfi9997buHHjO++8Y6aqVCrVzZs3CQ2sra0teQrs6wQ9CDY4ODh07tyZ0ODOnTvkGZ8Wws7ObsOGDYcOHTJfOvB4PKVSee/ePUKDdu3aYRwEOxAQbODz+eTvTRYUFFjUy86XicXifv36nTt3btKkSeb+xs+dO3cKCgoIDUaPHm3WAuAfCAiWjBgxgvAig6KolJQUNuthRCwWr1+//sCBA+wsn7l+/XrCinVCoXDMmDEslAE8BARrWrZsSb66UlNTLfOj1YMHD75y5UpMTAw786MUCkVaWhqhQefOnZmulAkNhoBgT2hoKGGrSqVKT09nrRhjSKXSn3/+OT09nc11tw8cOECe/96zZ0/WigEEBHuCg4PJwyWPHDnCdNKkmYhEomHDhmVmZo4dO5bN9Wx0Ot3BgwcJDfh8fkhICGv1AF5zsicwMJDP5xMmOPz++++VlZWmmsvQYGKxeOXKlXFxceQ1ncyhqqoqMzOT0EAgEPTq1Yu1egA9CPa4ublFREQQGjx79mzatGms1fNKQ4YMuXjx4qxZs9hPBx6PFxcXRxgtwuPxoqKiWrRowVo9gIBgVXx8PLnHnpqampuba8IzGj8HzNHRcd26dYcPHyYP2TCf3Nzcn3/+mdBAKBQuWbKEtXqAh4BgmYeHR1BQELnN1q1bTXhGY4ZCCwSCiIiI06dPT5kyxYSnZiopKYncIDg42MfHh51ioB4Cgm1Dhw4lN0hJSTHhGlNBQUHkTkTLli1Xrly5Z8+eLl26cHJbUa+4uJjcfeDxeCNGjGCnGPgHAoJtY8aMsba2JjSoqKiIjIxs5Hfr/tG3b99BgwbRbR08eHBGRsbcuXO5XXpfo9F8+OGH5LU5JRLJqFGjWCsJ6iEg2Obm5vbVV1+R/1U/e/bsoUOHTHI6sVj8008/vXxf4+7uvmrVqiNHjvj7+5vkRI1x8ODBc+fOERrw+fwFCxa4uLiwVhL8fxQT5H9nYmNjGR3tjVVWVmbwXrpdu3Z1dXWmOmNpaWlSUlK3bt0cHR3btWu3ZMmShw8f6vV6Ux2/MTQajZ+fH/mv0bp169LSUq4rbRpiY2MJf0mxWMzoaOhBcMDe3n748OHkNrdv3542bZrx36Egc3JyiomJuXz5cllZ2a1bt7766itPT0/OF7nj8XgqlSo2NpY8uZvH440ePRrDqzmBgOCAQCD4/PPPDU5Y3rFjB9N1XJqcEydOGHw2aWNjM2fOHEuIszcQAoIbzs7OiYmJ5GWm6urqpk+fbuHTwBsjNzd3xowZ5F6SWCxeu3Yt56NL31gICM5EREQYHJL06NGj0aNHN4m1ZJgqLy+PjIx8/PgxuVn37t3x8oJDCAjO2NraLlu2zOAyc7m5udOnTyd/ybbJqa2tnTZtmsHOkUQi+e6772xsbNipCl6GgOBSv379FixYQL671uv1O3bsmD17tqlGRnBOo9HExcXt3r2bIn6Yh8/nz5s3Lzg4mLXC4GUICI5Nnz69Q4cOBptt27Zt6dKlFjIZvDF0Ot2XX365Y8cOgy07derUyO+DQ+MhIDjWvHnz5ORkg71olUr19ddff/HFFxqNhp3CzEGj0Xz++ecrV64kLwnD4/Hs7Oy2bt2KiZucQ0Bwr0ePHt99950xg50TEhLmzJlj8OqyTLW1tVOmTElISDDYUiQSff/99126dGGhKiBDQFiEmJiYiIgIg6/6VSrVunXrJk+eXF5ezk5hplJeXj5p0qQtW7YYTDc+nx8REREdHc1OYUCGgLAIEolk69at5EUr/7Fz585evXrl5eWZuypTyc3Nff/991NTU41pPGjQoJ9++ok8nw1Yg4CwFLa2tvHx8b6+vgZb6vX63NzcAQMGpKenW/jtRl1d3YEDBwYPHnzz5k3yO4t6np6eq1evxntNy4GAsCD+/v5yudzT09OYxg8ePIiMjIyLi7PYVxtarXbq1KmjRo0yOBqqXqtWreRyOVcfMYZXQkBYFjc3t23bthk5MUmtVm/evLlTp05paWkW9XZDo9Hs27evY8eOW7duNXK+WYsWLbZv325kOAJrEBAWJyQk5OzZs8ZPXrxx48bo0aMHDhz49OlTsxZmpOLi4tDQ0MjISONnkTg7O2dnZ/fp08eshUEDICAsUfv27dPS0oz/51Sn02VkZLRt2zYuLu7GjRtmrY0gNzd35syZfn5+crnc+BsfDw+P3bt3Y7FJC8Vo9QgsGMOmwsJCY55ZviwqKkqhUGi1Wnbq1Gq1ZWVl//73vxtQqq+vb35+Pjt1viGwYMybwtXV9eDBgx988AHTpRB27drl7e0dERGRnJxs1u99KhSKpKSkiIgIT0/PBizGHRoaevToUXd3d3PUBqbBKE7Qg2BfdXX1qFGjGryorJWVVVRU1NmzZxUKRW1tbePrqa2tVSgUZ86cGTt2rMGpqHTEYvHIkSOrqqoaXw+8wLQ9CHx6z9LZ2Nhs3759y5Yt8+fPf/bsGdPd1Wr1rl27UlNT3dzcfH19O3bs2KNHj65du/r5+Rm/yD1FUX///ffVq1fPnDlz69atu3fvFhQU6PV6psXUs7Oz+/HHH8ePH9/gfAHWICCaAIlEMnXq1G7dusXGxubk5FBGjDh6gV6vz8/Pz8/Pz8rKqv+JVCp99913W7du3aZNG29vb5lMZmdnZ2trKxAIampqampqiouLi4qK7t27d/v27dzc3AZk08v4fL6/v//WrVt79OjR+KMBCxAQTUZAQMCpU6eSk5MXL17c+AGUNTU1Fy9evHjxoklqM4ZEIpk3b97MmTMxR7MJwUPKpqR58+YLFiw4dOhQQEAAeT1LiyIWi7t3737ixIlly5YhHZoWBETT069fv1OnTm3fvt3e3p7rWgyTyWSbN2/OyMjo3bs317UAYwiIJsnW1jYyMvLu3btz58719fW1wCXh+Xy+l5fXggULHj58OGHCBDs7O64rgoZAQDRhzZs3X7ly5eXLl+Pj46VSKdfl/K9mzZp9/fXXV65c+eabbxwcHLguBxoODymbNoFA4OjoGBcX969//Ss1NfXw4cNnzpzhauKWSCQKDAwcMWLE2LFjW7ZsyUkNYFroQbwm3Nzc5syZk5GRcf/+/Q8//FAgELB238Hn84VCYXR09MOHD+Vy+ezZs5EOrw30IF437u7ue/bsKSoqunDhwpkzZ06fPt2woRMGCYXCrl27BgcH9+zZ8/3333/rrbdMfgrgHALi9eTq6jp8+PD6TwSXlpbu27dv7969165dq62t1Wg0arWaaWTw+XyxWCyRSJo1a9axY8ewsLCxY8c2b97cPOWDpUBAvP6cnZ0//vjjjz+oA3NbAAAHBElEQVT+uLy8vLCwsH6I5N27dx8+fFhSUqJQKEpKSqqrq2tqang8nl6v5/P5dnZ2MplMJpM5OTl5eXn5+vp6eHi0bNmyVatWHh4eeCXx5kBAvEEcHR0dHR39/f25LgSaDDykBABaCAgAoIWAAABaCAgAoIWAAABaCAgAoIWAAABaCAgAoIWAAABaCAgAoIWAAABaCAgAoIWAAABaCAgAoIWAAABaCAgAoIWAAABaCAgAoIWAAABaplyTUq/Xc/XJFgCop9frTXg0PqPlz62srBABAE2XWCxWq9XGt8ctBgDQQkAAAC0EBADQQkAAAC0EBADQQkAAAC0EBADQQkAAAC0EBADQMuVQ68mTJycmJprwgADA1LRp05KSkkx1NFMGhEAgEIvFJjwgADAlEJjytgC3GABACwEBALQQEABAy5TPIJqEa9eu7d69+/79+87OzkOHDh0wYIBp79kAXidvUECoVKolS5Z89913/yyBsXHjxrCwsI0bN7q5uXFbG4BleoMCYvHixatWrXp+gRyKog4dOqTT6Y4cOcJhYQAW603pXefk5KxcufKVy2EdO3bs2LFj7JcEYPnelIA4fPgw3eJ6FEV9/fXXLNcD0CQ0gVuM4uLiS5cuFRcXa7XaBh/k9OnThK05OTmbNm1q8MEBGBGJRC4uLj169HBxceG6FkMoJsgDJWNjYxkdzRi//PKLra2tSNQEggzAeCKRyM7Obu/evSa/ZGJjYwnnFYvFjI5m0RdeWlra5MmTq6uruS4EwMS0Wq1SqZw0aZJQKBw+fDjX5dCy3GcQT548iYyMrKqq4roQAHOpqqr68MMPi4uLuS6EluUGxKlTp0z7CRAAC6TT6U6dOsV1FbQsNyAeP37MdQkAbHj06BHXJdCy3ICQSqVclwDABkv+X91yA6JLly58Pp/rKgDMi8/nd+3alesqaFluQAQGBoaFhXFdBYB5DRs2LDAwkOsqaFluQFhZWaWmpoaGhqIfAa8lPp8fGhq6e/duS16HzXIDgsfjSaXStLS0n3/+OSAgwNramutyAEzD2to6ICBg586d+/bta9asGdflkFj0QCkej+fg4BAVFRUVFdXI48yfP//777+n2+rp6fnw4cNGngLg9WPRPQgT6ty5M2GrJQ9lA+AQs4AQCoWErTqdrnHFmFFYWJi/v/8rN7m6ui5cuJDlegDMhHwZki/hlzELCHt7e8JWpVJpsWMfZTLZ4cOHW7Ro8fKmJUuWNIFJdQBG0Ov15NkJjo6OjA7ILCA8PDwIWx89etSYGdnm5u3tffLkydjYWG9vbysrqxYtWowYMeLYsWMxMTFclwZgGlqtljwuk3wJv4zZQ8qAgIDLly/Tbb127Vp5ebkl/2vcqVOnjRs3cl0FgLmUlZXl5OQQGgQEBDA6ILMexODBgwlba2pqxo8fb8mdCIDXmEajGT9+fE1NDaEN+RJ+GZ+iWYjtlfR6vYODg1KpJLRZtWrV7NmzGRUBAI2XkJAwa9YsQgOZTFZeXs7oOw/MehACgSAoKIjcZunSpcuXL0c/AoA1Wq122bJlixcvJjd77733mH4FhvE4iEGDBpEbVFRU/Oc//wkPDz9//nxRUVFtbS2jTgoAGIOiqNra2qKiovPnz4eHh3/11VcVFRXkXQYOHMj0LMxuMXg8nkKh8PHxId/n1LO2tnZ1dbWzs5NIJJhPAWBaFEXV1dUplcqioiKVSmWwvVQqffDgwSvf9Bs4DVObN2/GKrIATYhYLN6yZUsDLvaGBIRKperduzfXvzIAGKtPnz4qlYqlgKAoKjs728nJievfGgAMc3Z2vnTpUsOu9AYGBEVRZ86csbGx4fp3BwASqVSalZXV4Mu84QGh1Wq3bt0qk8m4/gsAwKvZ2dklJydrtVoOAqJeZmYm7jUALJCTk9Mff/zRyAu8sQFBUdT169fDw8OZTiMFADMRCoXh4eF//vmnXq/nPiAoitJqtcnJyV5eXogJAA4JhUJvb++UlBSdTmeSS9s0AVGvpKQkPT09KioKDy8BWGZraxsVFXXgwIGSkhITXtSMR1IaQ6vVZmZmZmdn37hxQ6FQVFdXm+MsAG8yPp9va2vr4uLi5+cXGBgYEhJijv67WQICAF4Pb8qitQDQAAgIAKCFgAAAWggIAKCFgAAAWggIAKCFgAAAWggIAKCFgAAAWggIAKCFgAAAWggIAKCFgAAAWggIAKCFgAAAWggIAKCFgAAAWggIAKCFgAAAWggIAKCFgAAAWggIAKCFgAAAWggIAKCFgAAAWggIAKCFgAAAWggIAKCFgAAAWggIAKCFgAAAWggIAKCFgAAAWggIAKCFgAAAWggIAKCFgAAAWggIAKCFgAAAWggIAKCFgAAAWggIAKCFgAAAWggIAKCFgAAAWv8PZ3VGsdppU1QAAAAASUVORK5CYII=;" vertex="1" parent="1">
          <mxGeometry x="483" y="19" width="202" height="202" as="geometry" />
        </mxCell>
      </root>
    </mxGraphModel>
  </diagram>
</mxfile>
